<svg id="svg" version="1.1" xmlns="http://www.w3.org/2000/svg" xmlns:xlink="http://www.w3.org/1999/xlink" width="400" height="73.70441458733205" viewBox="0, 0, 400,73.70441458733205"><g id="svgg"><path id="path0" d="M58.944 8.944 C 58.883 9.006,58.833 9.193,58.833 9.361 C 58.833 9.628,58.687 9.667,57.667 9.667 C 56.611 9.667,56.500 9.698,56.500 10.000 C 56.500 10.320,55.698 10.459,54.494 10.348 C 54.344 10.334,54.227 10.471,54.211 10.681 C 54.176 11.149,54.181 11.146,53.368 11.202 C 52.830 11.239,52.667 11.318,52.667 11.542 C 52.667 11.822,52.420 11.906,51.790 11.842 C 51.475 11.810,51.000 12.198,51.000 12.488 C 51.000 12.586,50.794 12.668,50.542 12.669 C 50.005 12.672,49.765 12.810,49.622 13.198 C 49.551 13.390,49.289 13.496,48.801 13.532 C 48.321 13.566,48.098 13.655,48.128 13.799 C 48.152 13.918,47.946 14.094,47.669 14.191 C 47.348 14.303,47.167 14.480,47.167 14.683 C 47.167 14.889,47.050 15.000,46.833 15.000 C 46.618 15.000,46.500 15.111,46.500 15.314 C 46.500 15.605,46.176 15.744,45.218 15.864 C 45.108 15.878,45.023 15.933,45.029 15.986 C 45.069 16.357,44.976 16.671,44.848 16.593 C 44.642 16.465,44.148 16.668,44.252 16.837 C 44.361 17.013,43.848 17.529,43.672 17.420 C 43.598 17.374,43.497 17.492,43.448 17.681 C 43.399 17.870,43.203 18.065,43.014 18.115 C 42.825 18.164,42.708 18.265,42.753 18.339 C 42.868 18.525,42.342 19.025,42.153 18.908 C 42.069 18.856,41.989 18.912,41.975 19.032 C 41.961 19.152,41.932 19.325,41.911 19.417 C 41.889 19.508,41.863 19.743,41.853 19.939 C 41.841 20.149,41.692 20.332,41.488 20.385 C 41.297 20.435,41.101 20.631,41.052 20.821 C 40.999 21.021,40.825 21.167,40.637 21.167 C 40.459 21.167,40.354 21.232,40.404 21.312 C 40.453 21.392,40.270 21.691,39.997 21.977 C 39.706 22.282,39.500 22.677,39.500 22.931 C 39.500 23.224,39.392 23.393,39.167 23.452 C 38.897 23.522,38.833 23.679,38.833 24.269 C 38.833 24.938,38.798 25.000,38.417 25.000 C 38.034 25.000,38.000 25.061,38.000 25.750 C 38.000 26.527,37.983 26.542,37.083 26.542 C 36.601 26.542,36.535 26.497,36.434 26.095 C 36.371 25.842,36.192 25.670,35.958 25.637 C 35.708 25.601,35.600 25.486,35.632 25.292 C 35.673 25.049,35.553 25.000,34.924 25.000 C 34.227 25.000,34.167 24.967,34.167 24.583 C 34.167 24.203,34.104 24.167,33.443 24.167 C 32.827 24.167,32.691 24.103,32.523 23.735 C 32.349 23.353,32.250 23.312,31.667 23.379 C 31.305 23.421,31.044 23.397,31.088 23.326 C 31.318 22.954,30.937 22.742,29.956 22.695 C 29.125 22.654,28.831 22.563,28.491 22.239 L 28.065 21.833 22.574 21.839 C 16.992 21.844,16.500 21.896,16.500 22.477 C 16.500 22.596,16.162 22.667,15.597 22.667 C 14.560 22.667,14.167 22.780,14.167 23.080 C 14.167 23.206,13.838 23.334,13.342 23.400 C 12.781 23.474,12.421 23.628,12.217 23.880 C 12.026 24.115,11.776 24.230,11.531 24.196 C 11.285 24.161,11.157 24.220,11.176 24.362 C 11.251 24.913,11.149 25.000,10.428 25.000 C 9.789 25.000,9.683 25.051,9.637 25.375 C 9.602 25.621,9.469 25.750,9.250 25.750 C 9.031 25.750,8.898 25.879,8.863 26.125 C 8.832 26.349,8.694 26.500,8.522 26.500 C 8.363 26.500,8.132 26.594,8.009 26.708 C 7.866 26.841,7.824 26.847,7.893 26.723 C 7.961 26.602,7.892 26.550,7.709 26.585 C 7.548 26.616,7.379 26.648,7.333 26.656 C 7.287 26.665,7.362 26.744,7.500 26.833 C 7.682 26.951,7.690 26.996,7.532 26.997 C 7.412 26.999,7.360 27.075,7.417 27.167 C 7.473 27.258,7.403 27.343,7.260 27.354 C 7.117 27.366,6.906 27.384,6.792 27.396 C 6.677 27.407,6.583 27.513,6.583 27.631 C 6.583 27.899,6.153 28.178,5.942 28.048 C 5.852 27.992,5.820 28.135,5.868 28.384 C 5.937 28.748,5.871 28.846,5.457 28.990 C 5.109 29.111,4.992 29.239,5.063 29.423 C 5.118 29.567,5.100 29.645,5.023 29.597 C 4.661 29.374,4.232 30.067,4.179 30.958 C 4.172 31.073,4.017 31.167,3.833 31.167 C 3.632 31.167,3.500 31.278,3.500 31.448 C 3.500 31.602,3.352 31.886,3.171 32.079 C 2.990 32.271,2.817 32.592,2.787 32.792 C 2.756 32.991,2.567 33.298,2.366 33.472 C 2.115 33.690,2.000 33.979,2.000 34.395 C 2.000 34.979,1.893 35.082,1.358 35.009 C 1.234 34.992,1.172 35.040,1.219 35.117 C 1.266 35.193,1.229 35.629,1.137 36.086 C 1.045 36.543,0.964 37.007,0.957 37.118 C 0.950 37.228,0.845 37.357,0.724 37.403 C 0.475 37.499,0.495 37.148,0.750 36.961 C 0.846 36.890,0.804 36.837,0.649 36.836 C 0.425 36.834,0.387 37.035,0.412 38.100 C 0.433 38.966,0.373 39.437,0.221 39.588 C -0.208 40.017,-0.089 46.938,0.350 47.053 C 0.725 47.151,0.639 47.500,0.240 47.500 C -0.058 47.500,-0.085 48.271,0.208 48.390 C 0.375 48.457,0.375 48.476,0.208 48.487 C -0.150 48.509,-0.021 49.000,0.343 49.000 C 0.532 49.000,0.640 48.925,0.583 48.833 C 0.527 48.742,0.644 48.667,0.844 48.667 C 1.148 48.667,1.174 48.707,1.000 48.917 C 0.857 49.089,0.850 49.167,0.980 49.167 C 1.082 49.167,1.167 49.246,1.167 49.343 C 1.167 49.440,1.096 49.476,1.009 49.422 C 0.921 49.368,0.882 49.485,0.920 49.685 C 1.017 50.188,1.167 50.295,1.167 49.861 L 1.167 49.500 12.333 49.500 L 23.500 49.500 23.500 48.901 C 23.500 48.455,23.580 48.281,23.814 48.220 C 24.044 48.160,24.155 47.928,24.231 47.355 C 24.298 46.850,24.453 46.487,24.668 46.333 C 24.904 46.162,25.001 45.899,25.003 45.422 C 25.005 44.672,25.114 44.442,25.542 44.285 C 25.771 44.200,25.833 43.981,25.833 43.259 C 25.833 42.464,25.889 42.305,26.250 42.068 C 26.600 41.838,26.667 41.665,26.667 40.981 C 26.667 40.411,26.759 40.074,26.975 39.859 C 27.144 39.689,27.326 39.228,27.379 38.833 C 27.432 38.438,27.619 37.921,27.794 37.683 C 27.969 37.445,28.156 36.925,28.209 36.529 C 28.262 36.132,28.427 35.673,28.576 35.508 C 28.725 35.344,28.906 34.834,28.979 34.375 C 29.051 33.916,29.273 33.334,29.472 33.081 C 29.671 32.828,29.833 32.417,29.833 32.167 C 29.833 31.916,29.983 31.521,30.167 31.288 C 30.350 31.055,30.500 30.762,30.500 30.638 C 30.500 30.514,30.639 30.150,30.809 29.831 C 30.979 29.511,31.215 28.950,31.333 28.583 C 31.452 28.217,31.688 27.738,31.858 27.519 C 32.028 27.301,32.167 27.015,32.167 26.884 C 32.167 26.065,33.869 24.813,34.048 25.500 C 34.115 25.756,34.276 25.833,34.739 25.833 C 35.228 25.833,35.371 25.912,35.500 26.250 C 35.611 26.543,35.784 26.667,36.079 26.667 C 36.389 26.667,36.500 26.755,36.500 27.000 C 36.500 27.257,36.611 27.333,36.982 27.333 C 37.685 27.333,37.962 28.546,37.422 29.260 C 37.287 29.438,37.175 29.681,37.172 29.800 C 37.165 30.080,36.220 32.575,35.834 33.333 C 35.670 33.654,35.481 34.179,35.413 34.500 C 35.345 34.821,35.149 35.345,34.978 35.664 C 34.807 35.984,34.667 36.435,34.667 36.667 C 34.667 36.899,34.528 37.350,34.358 37.669 C 34.188 37.989,33.994 38.550,33.927 38.917 C 33.860 39.283,33.704 39.808,33.579 40.083 C 33.455 40.358,33.270 40.921,33.169 41.333 C 33.067 41.746,32.881 42.308,32.755 42.583 C 32.629 42.858,32.252 43.941,31.918 44.989 C 31.584 46.036,31.213 47.086,31.094 47.322 C 30.975 47.557,30.828 48.024,30.768 48.358 C 30.707 48.693,30.547 49.058,30.412 49.170 C 30.277 49.282,30.167 49.523,30.167 49.704 C 30.167 49.886,29.983 50.383,29.757 50.809 C 29.532 51.235,29.309 51.776,29.262 52.011 C 29.215 52.246,29.024 52.614,28.838 52.828 C 28.652 53.042,28.500 53.296,28.500 53.392 C 28.500 53.814,26.656 56.195,25.308 57.514 C 24.560 58.245,24.151 58.571,23.187 59.204 C 22.947 59.362,22.637 59.570,22.500 59.666 C 21.009 60.709,19.845 61.202,16.755 62.094 C 14.969 62.610,9.269 62.289,8.830 61.648 C 8.658 61.396,7.796 61.167,7.022 61.167 C 6.588 61.167,6.140 61.073,6.025 60.958 C 5.911 60.844,5.644 60.747,5.433 60.743 C 4.858 60.732,4.853 61.623,5.428 61.768 C 5.672 61.829,5.833 61.990,5.833 62.173 C 5.833 62.361,5.976 62.497,6.208 62.530 C 6.447 62.564,6.575 62.690,6.560 62.876 C 6.546 63.057,6.689 63.208,6.935 63.269 C 7.179 63.331,7.333 63.491,7.333 63.685 C 7.333 63.947,7.459 64.000,8.083 64.000 C 8.772 64.000,8.833 64.034,8.833 64.417 C 8.833 64.750,8.917 64.833,9.250 64.833 C 9.556 64.833,9.667 64.922,9.667 65.167 C 9.667 65.350,9.742 65.509,9.833 65.521 C 9.925 65.532,10.075 65.560,10.167 65.583 C 10.258 65.606,10.521 65.634,10.750 65.646 C 11.049 65.661,11.167 65.761,11.167 66.000 C 11.167 66.282,11.278 66.333,11.890 66.333 C 12.500 66.333,12.643 66.399,12.803 66.750 C 12.952 67.077,13.116 67.167,13.568 67.167 C 14.032 67.167,14.157 67.239,14.216 67.542 L 14.288 67.917 14.311 67.531 C 14.329 67.212,14.413 67.154,14.792 67.197 C 15.121 67.235,15.236 67.332,15.201 67.542 C 15.158 67.799,15.308 67.833,16.483 67.833 C 17.801 67.833,18.288 68.029,17.813 68.368 C 17.635 68.494,17.649 68.510,17.875 68.438 C 18.035 68.386,18.167 68.416,18.167 68.505 C 18.167 68.600,18.928 68.667,20.000 68.667 C 21.499 68.667,21.833 68.711,21.833 68.911 C 21.833 69.522,21.923 69.523,50.635 69.463 C 80.145 69.400,79.181 69.417,79.370 68.958 C 79.467 68.720,79.718 68.663,80.745 68.646 C 82.458 68.617,82.410 68.630,82.470 68.208 C 82.515 67.890,82.625 67.833,83.194 67.833 C 83.724 67.833,83.883 67.764,83.952 67.500 C 84.033 67.191,84.391 67.089,85.290 67.122 C 85.403 67.126,85.455 67.062,85.405 66.981 C 85.355 66.900,85.401 66.833,85.508 66.833 C 85.615 66.833,85.659 66.721,85.606 66.583 C 85.537 66.403,85.625 66.333,85.922 66.333 C 86.222 66.333,86.333 66.243,86.333 66.000 C 86.333 65.764,86.444 65.667,86.713 65.667 C 87.192 65.667,87.833 65.226,87.833 64.897 C 87.833 64.760,87.898 64.687,87.978 64.736 C 88.161 64.850,88.706 64.261,88.556 64.111 C 88.495 64.050,88.565 64.000,88.713 64.000 C 89.057 64.000,89.500 63.370,89.500 62.880 C 89.500 62.611,89.598 62.500,89.833 62.500 C 90.081 62.500,90.167 62.389,90.167 62.066 C 90.167 61.766,90.238 61.658,90.396 61.719 C 90.526 61.769,90.714 61.639,90.833 61.417 C 90.948 61.203,91.166 60.995,91.318 60.956 C 91.505 60.907,91.609 60.674,91.639 60.238 C 91.683 59.579,91.921 59.277,92.292 59.413 C 92.439 59.467,92.500 59.269,92.500 58.740 C 92.500 58.177,92.573 57.963,92.792 57.882 C 93.203 57.730,93.328 57.497,93.331 56.875 C 93.332 56.524,93.415 56.333,93.566 56.333 C 93.845 56.333,94.000 55.975,94.000 55.331 C 94.000 54.966,94.086 54.844,94.375 54.803 C 94.784 54.745,94.782 54.750,94.813 53.417 C 94.831 52.621,94.877 52.500,95.163 52.500 C 95.469 52.500,95.738 51.994,95.657 51.573 C 95.534 50.934,95.696 50.295,96.000 50.215 C 96.307 50.135,96.333 49.988,96.333 48.380 C 96.333 46.722,96.354 46.615,96.743 46.309 L 97.152 45.987 97.163 39.599 C 97.174 32.904,97.156 32.667,96.649 32.667 C 96.371 32.667,96.333 32.535,96.333 31.568 C 96.333 30.609,96.291 30.458,96.000 30.382 C 95.728 30.310,95.666 30.153,95.664 29.522 C 95.661 28.430,95.515 28.000,95.147 28.000 C 94.921 28.000,94.833 27.880,94.833 27.572 C 94.833 27.013,94.551 26.500,94.244 26.500 C 94.069 26.500,94.000 26.306,94.000 25.818 C 94.000 25.276,93.932 25.118,93.667 25.048 C 93.364 24.969,93.261 24.798,93.313 24.461 C 93.323 24.394,93.148 24.293,92.924 24.237 C 92.587 24.152,92.509 24.018,92.467 23.442 C 92.425 22.870,92.352 22.741,92.042 22.697 C 91.770 22.658,91.667 22.532,91.667 22.238 C 91.667 21.944,91.575 21.833,91.333 21.833 C 91.111 21.833,91.000 21.722,91.000 21.500 C 91.000 21.256,90.889 21.167,90.583 21.167 C 90.207 21.167,90.167 21.101,90.167 20.484 C 90.167 19.952,90.096 19.784,89.847 19.719 C 89.672 19.673,89.483 19.455,89.428 19.234 C 89.366 18.989,89.206 18.833,89.015 18.833 C 88.821 18.833,88.663 18.676,88.598 18.417 C 88.531 18.148,88.377 18.000,88.163 18.000 C 87.973 18.000,87.833 17.888,87.833 17.734 C 87.833 17.588,87.688 17.431,87.509 17.384 C 87.331 17.337,87.162 17.138,87.134 16.941 C 87.102 16.717,86.943 16.563,86.708 16.530 C 86.476 16.497,86.333 16.361,86.333 16.173 C 86.333 15.854,85.912 15.599,85.652 15.759 C 85.568 15.811,85.500 15.707,85.500 15.528 C 85.500 15.159,85.194 15.000,84.486 15.000 C 84.104 15.000,84.000 14.925,84.000 14.651 C 84.000 14.448,83.867 14.267,83.682 14.219 C 83.507 14.173,83.327 13.993,83.281 13.818 C 83.217 13.572,83.047 13.500,82.527 13.500 C 81.959 13.500,81.848 13.443,81.803 13.125 C 81.769 12.884,81.616 12.731,81.375 12.697 C 81.138 12.663,81.000 12.528,81.000 12.329 C 81.000 12.096,80.839 11.988,80.375 11.911 C 79.482 11.763,79.300 11.689,79.405 11.519 C 79.524 11.326,79.108 11.167,78.486 11.167 C 78.219 11.167,78.000 11.097,78.000 11.012 C 78.000 10.601,77.437 10.333,76.571 10.333 C 75.778 10.333,75.667 10.292,75.667 10.000 C 75.667 9.690,75.556 9.667,74.083 9.667 C 72.506 9.667,72.500 9.665,72.500 9.250 L 72.500 8.833 65.778 8.833 C 62.081 8.833,59.006 8.883,58.944 8.944 " stroke="none" fill="#15b8f8" fill-rule="evenodd"></path><path id="path1" d="M33.333 26.705 C 33.333 26.886,33.191 27.068,33.015 27.114 C 32.701 27.196,32.507 27.620,32.502 28.230 C 32.501 28.403,32.362 28.666,32.193 28.814 C 32.025 28.962,31.840 29.375,31.783 29.732 C 31.726 30.089,31.527 30.544,31.340 30.743 C 31.151 30.944,31.000 31.331,31.000 31.613 C 31.000 31.893,30.853 32.309,30.673 32.538 C 30.493 32.767,30.274 33.270,30.188 33.656 C 30.101 34.041,29.917 34.483,29.780 34.637 C 29.642 34.791,29.477 35.274,29.412 35.710 C 29.348 36.147,29.154 36.684,28.981 36.903 C 28.808 37.123,28.667 37.531,28.667 37.810 C 28.667 38.350,28.361 39.167,28.159 39.167 C 28.092 39.167,27.985 39.523,27.920 39.958 C 27.855 40.394,27.661 41.059,27.490 41.438 C 27.318 41.816,27.126 42.453,27.063 42.854 C 27.001 43.255,26.811 43.762,26.642 43.981 C 26.472 44.199,26.333 44.538,26.333 44.733 C 26.333 44.929,26.185 45.366,26.003 45.705 C 25.821 46.044,25.623 46.643,25.562 47.036 C 25.502 47.429,25.313 47.949,25.143 48.192 C 24.973 48.436,24.833 48.758,24.833 48.908 C 24.833 49.059,24.646 49.534,24.417 49.965 C 24.188 50.395,24.000 50.863,24.000 51.003 C 24.000 51.144,23.887 51.420,23.749 51.617 C 23.611 51.814,23.227 52.487,22.896 53.113 C 22.081 54.650,20.134 57.000,19.675 57.000 C 19.579 57.000,19.500 57.073,19.500 57.163 C 19.500 57.402,18.486 58.283,17.472 58.924 C 16.983 59.233,16.488 59.568,16.371 59.669 C 16.255 59.770,15.917 59.936,15.621 60.037 C 15.325 60.137,14.904 60.358,14.686 60.527 C 14.415 60.736,14.008 60.833,13.408 60.833 C 12.263 60.833,12.000 60.947,12.000 61.445 L 12.000 61.854 13.792 61.788 C 14.777 61.751,15.883 61.627,16.250 61.512 C 16.617 61.397,17.306 61.250,17.783 61.185 C 18.259 61.121,18.784 60.948,18.949 60.802 C 19.115 60.656,19.502 60.484,19.810 60.418 C 20.117 60.353,20.634 60.119,20.958 59.899 C 21.282 59.680,21.641 59.500,21.755 59.500 C 21.870 59.500,22.008 59.386,22.061 59.247 C 22.115 59.109,22.348 58.923,22.579 58.835 C 22.811 58.747,23.000 58.607,23.000 58.524 C 23.000 58.442,23.241 58.274,23.535 58.152 C 23.830 58.030,24.388 57.608,24.776 57.215 C 25.163 56.822,25.560 56.500,25.657 56.500 C 25.754 56.500,25.833 56.390,25.833 56.256 C 25.833 56.121,26.047 55.765,26.308 55.464 C 26.969 54.701,27.992 53.215,28.279 52.599 C 28.412 52.316,28.627 51.896,28.758 51.667 C 28.888 51.438,28.996 51.095,28.998 50.906 C 28.999 50.717,29.148 50.404,29.330 50.209 C 29.511 50.014,29.710 49.532,29.771 49.136 C 29.833 48.740,30.022 48.238,30.192 48.019 C 30.361 47.801,30.500 47.379,30.500 47.083 C 30.500 46.787,30.646 46.360,30.824 46.133 C 31.002 45.907,31.200 45.327,31.264 44.845 C 31.328 44.363,31.509 43.845,31.667 43.693 C 31.833 43.532,31.997 43.033,32.057 42.500 C 32.117 41.966,32.269 41.504,32.419 41.394 C 32.566 41.287,32.723 40.825,32.782 40.326 C 32.839 39.843,33.012 39.321,33.167 39.166 C 33.329 39.005,33.497 38.470,33.563 37.908 C 33.626 37.370,33.799 36.797,33.946 36.634 C 34.094 36.470,34.252 35.955,34.297 35.489 C 34.353 34.904,34.475 34.581,34.689 34.447 C 34.884 34.325,35.000 34.060,35.000 33.735 C 35.000 33.041,35.301 32.215,35.595 32.102 C 35.746 32.044,35.833 31.769,35.833 31.348 C 35.833 30.880,35.929 30.619,36.159 30.458 C 36.401 30.288,36.513 29.946,36.598 29.115 L 36.713 28.001 36.198 27.898 C 35.915 27.841,35.556 27.654,35.399 27.481 C 35.243 27.308,35.018 27.167,34.900 27.167 C 34.782 27.167,34.588 27.028,34.468 26.859 C 34.140 26.397,33.333 26.287,33.333 26.705 " stroke="none" fill="#14659e" fill-rule="evenodd"></path><path id="path2" d="M201.552 6.151 C 201.507 6.326,201.326 6.507,201.151 6.552 C 200.638 6.687,200.653 63.333,201.167 63.333 C 201.389 63.333,201.500 63.444,201.500 63.667 C 201.500 63.991,201.611 64.000,205.750 64.000 L 210.000 64.000 210.000 47.917 C 210.000 31.944,210.002 31.833,210.333 31.833 C 210.578 31.833,210.667 31.722,210.667 31.417 L 210.667 31.000 214.072 31.000 C 217.331 31.000,217.482 30.986,217.583 30.667 C 217.683 30.352,217.836 30.333,220.325 30.333 C 222.821 30.333,222.966 30.351,223.048 30.667 C 223.127 30.969,223.276 31.000,224.639 31.000 C 226.072 31.000,226.146 31.018,226.197 31.375 C 226.241 31.687,226.369 31.759,226.958 31.801 C 227.584 31.847,227.667 31.900,227.667 32.260 C 227.667 32.556,227.758 32.667,228.000 32.667 C 228.199 32.667,228.341 32.784,228.353 32.958 C 228.363 33.119,228.389 33.325,228.411 33.417 C 228.432 33.508,228.461 33.715,228.475 33.875 C 228.490 34.047,228.637 34.167,228.833 34.167 C 229.164 34.167,229.167 34.285,229.188 48.083 C 229.212 64.220,229.156 62.403,229.625 62.470 C 229.949 62.516,230.000 62.623,230.000 63.262 L 230.000 64.000 234.167 64.000 L 238.333 64.000 238.333 47.167 C 238.333 30.576,238.329 30.333,238.008 30.333 C 237.721 30.333,237.676 30.197,237.633 29.208 C 237.588 28.186,237.549 28.078,237.208 28.030 C 236.890 27.985,236.833 27.875,236.833 27.306 C 236.833 26.782,236.763 26.617,236.509 26.551 C 236.331 26.504,236.162 26.305,236.134 26.108 C 236.099 25.858,235.970 25.754,235.708 25.763 C 235.423 25.773,235.333 25.684,235.333 25.388 C 235.333 25.040,235.257 25.000,234.595 25.000 C 233.956 25.000,233.849 24.949,233.803 24.625 C 233.769 24.387,233.616 24.231,233.383 24.198 C 233.181 24.169,232.970 24.000,232.913 23.823 C 232.848 23.617,232.649 23.493,232.364 23.481 C 232.118 23.470,231.842 23.444,231.750 23.423 C 231.658 23.402,231.236 23.373,230.811 23.359 C 230.191 23.338,230.022 23.268,229.952 23.000 C 229.853 22.622,214.500 22.457,214.500 22.833 C 214.500 22.925,214.406 22.981,214.292 22.958 C 214.177 22.935,214.102 23.010,214.125 23.125 C 214.166 23.331,213.881 23.356,211.500 23.356 C 211.042 23.356,210.517 23.351,210.333 23.344 C 210.004 23.333,210.000 23.219,210.000 14.583 L 210.000 5.833 205.818 5.833 C 201.843 5.833,201.631 5.849,201.552 6.151 M321.583 10.667 C 321.527 10.758,321.541 10.834,321.615 10.836 C 321.689 10.837,321.637 10.911,321.500 11.000 C 321.362 11.089,319.961 11.163,318.384 11.164 C 315.657 11.167,315.507 11.184,315.272 11.519 C 315.101 11.764,314.829 11.879,314.387 11.896 C 313.869 11.916,313.740 11.988,313.698 12.283 C 313.666 12.509,313.508 12.666,313.281 12.698 C 313.051 12.731,312.897 12.888,312.863 13.125 C 312.829 13.366,312.695 13.500,312.488 13.500 C 312.282 13.500,312.167 13.615,312.167 13.822 C 312.167 14.029,312.033 14.163,311.792 14.197 C 311.551 14.231,311.398 14.384,311.363 14.625 C 311.326 14.885,311.197 15.000,310.941 15.000 C 310.681 15.000,310.563 15.107,310.544 15.360 C 310.515 15.737,310.193 16.036,309.966 15.896 C 309.893 15.851,309.833 16.128,309.833 16.513 C 309.833 17.044,309.734 17.304,309.417 17.598 C 309.081 17.909,309.000 18.143,309.000 18.807 C 309.000 19.488,308.950 19.626,308.708 19.606 C 308.475 19.588,308.407 19.740,308.366 20.367 C 308.329 20.951,308.238 21.174,308.011 21.246 C 307.691 21.348,307.500 21.980,307.500 22.938 C 307.500 23.448,307.439 23.521,307.042 23.490 C 306.845 23.475,306.701 24.164,306.683 25.207 C 306.670 25.972,306.600 26.206,306.333 26.372 C 306.053 26.547,306.000 26.761,306.000 27.707 C 306.000 28.797,305.987 28.833,305.583 28.833 C 305.179 28.833,305.167 28.867,305.167 30.000 C 305.167 31.056,305.135 31.167,304.833 31.167 C 304.548 31.167,304.496 31.287,304.472 32.000 C 304.457 32.458,304.438 32.965,304.431 33.125 C 304.423 33.285,304.267 33.457,304.083 33.507 C 303.787 33.587,303.745 33.761,303.702 35.049 C 303.656 36.443,303.638 36.500,303.266 36.500 C 302.977 36.500,302.878 36.594,302.876 36.875 C 302.863 38.705,302.838 38.833,302.500 38.833 C 302.202 38.833,302.167 38.944,302.167 39.890 C 302.167 40.856,302.131 40.963,301.749 41.137 C 301.519 41.241,301.341 41.385,301.352 41.455 C 301.512 42.440,301.299 44.167,301.019 44.167 C 300.696 44.167,300.370 45.155,300.580 45.495 C 300.770 45.803,300.471 46.500,300.149 46.500 C 299.873 46.500,299.833 46.631,299.833 47.557 C 299.833 48.504,299.793 48.632,299.442 48.791 C 299.098 48.948,299.047 49.095,299.019 50.019 C 298.987 51.105,298.939 51.250,298.611 51.250 C 298.482 51.250,298.401 51.733,298.369 52.698 C 298.324 54.047,298.296 54.149,297.952 54.198 C 297.622 54.244,297.578 54.361,297.533 55.309 C 297.491 56.196,297.430 56.383,297.158 56.454 C 296.980 56.501,296.821 56.661,296.805 56.811 C 296.744 57.393,296.713 57.767,296.690 58.197 C 296.675 58.483,296.548 58.682,296.337 58.749 C 296.155 58.807,296.014 58.905,296.023 58.968 C 296.210 60.283,295.967 61.833,295.574 61.833 C 294.967 61.833,295.015 63.217,295.625 63.303 C 295.866 63.337,296.000 63.471,296.000 63.678 C 296.000 63.986,296.152 64.000,299.417 64.000 C 302.689 64.000,302.833 63.986,302.833 63.676 C 302.833 63.415,302.969 63.343,303.542 63.301 C 304.175 63.255,304.256 63.202,304.303 62.792 C 304.332 62.535,304.458 62.333,304.589 62.333 C 304.937 62.333,305.167 61.780,305.167 60.939 C 305.167 60.289,305.216 60.183,305.542 60.137 C 305.879 60.089,305.922 59.978,305.967 59.024 C 306.009 58.137,306.070 57.951,306.342 57.879 C 306.633 57.803,306.667 57.642,306.667 56.314 C 306.667 54.846,306.670 54.833,307.083 54.833 C 307.488 54.833,307.500 54.799,307.500 53.678 C 307.500 52.607,307.527 52.519,307.875 52.470 C 308.213 52.422,308.255 52.311,308.300 51.357 C 308.342 50.471,308.403 50.284,308.675 50.213 C 308.954 50.140,309.000 49.979,309.000 49.075 C 309.000 48.111,309.031 48.019,309.375 47.970 C 309.685 47.926,309.759 47.797,309.800 47.228 L 309.851 46.539 310.840 46.467 C 311.560 46.415,311.934 46.297,312.217 46.031 L 312.605 45.667 321.200 45.667 C 329.418 45.667,329.798 45.680,329.875 45.975 C 329.964 46.315,330.711 46.495,332.042 46.498 L 332.833 46.500 332.833 47.250 C 332.833 47.939,332.867 48.000,333.250 48.000 C 333.664 48.000,333.667 48.011,333.667 49.500 C 333.667 50.877,333.693 51.000,333.992 51.000 C 334.279 51.000,334.324 51.137,334.367 52.125 C 334.412 53.147,334.451 53.255,334.792 53.303 C 335.134 53.352,335.368 55.000,335.182 56.056 C 335.168 56.133,335.309 56.235,335.495 56.284 C 335.694 56.336,335.840 56.519,335.849 56.728 C 335.867 57.160,335.956 58.369,335.981 58.542 C 335.992 58.610,336.150 58.667,336.333 58.667 C 336.635 58.667,336.667 58.778,336.667 59.833 C 336.667 60.967,336.679 61.000,337.083 61.000 C 337.466 61.000,337.500 61.061,337.500 61.750 C 337.500 62.389,337.549 62.500,337.833 62.500 C 338.078 62.500,338.167 62.611,338.167 62.917 C 338.167 63.250,338.250 63.333,338.583 63.333 C 338.889 63.333,339.000 63.422,339.000 63.667 C 339.000 63.991,339.111 64.000,343.167 64.000 L 347.333 64.000 347.333 62.500 C 347.333 61.111,347.309 61.000,347.000 61.000 C 346.697 61.000,346.667 60.889,346.667 59.764 C 346.667 58.311,346.575 58.000,346.149 58.000 C 345.869 58.000,345.833 57.867,345.833 56.833 C 345.833 55.778,345.802 55.667,345.500 55.667 C 345.208 55.667,345.167 55.556,345.167 54.771 C 345.167 53.462,344.999 52.802,344.641 52.708 C 344.379 52.640,344.333 52.456,344.333 51.481 C 344.333 50.368,344.321 50.333,343.917 50.333 C 343.512 50.333,343.500 50.300,343.500 49.167 C 343.500 48.222,343.437 47.937,343.167 47.667 C 342.898 47.398,342.833 47.111,342.833 46.184 C 342.833 45.050,342.612 44.641,342.152 44.926 C 342.066 44.979,342.000 44.507,342.000 43.843 C 342.000 42.778,341.969 42.667,341.667 42.667 C 341.363 42.667,341.332 42.552,341.322 41.375 C 341.310 40.103,341.185 39.463,340.952 39.488 C 340.887 39.494,340.762 39.500,340.674 39.500 C 340.587 39.500,340.493 38.994,340.466 38.375 C 340.433 37.627,340.347 37.243,340.208 37.229 C 340.094 37.218,339.925 37.199,339.833 37.188 C 339.736 37.175,339.667 36.542,339.667 35.667 C 339.667 34.278,339.642 34.167,339.333 34.167 C 339.041 34.167,339.000 34.056,339.000 33.264 C 339.000 32.146,338.887 31.833,338.482 31.833 C 338.196 31.833,338.167 31.694,338.167 30.333 C 338.167 28.956,338.140 28.833,337.841 28.833 C 337.555 28.833,337.509 28.697,337.466 27.708 C 337.421 26.686,337.382 26.578,337.042 26.530 C 336.696 26.481,336.666 26.390,336.664 25.363 C 336.661 23.932,336.541 23.500,336.147 23.500 C 335.872 23.500,335.833 23.366,335.833 22.401 C 335.833 21.442,335.791 21.291,335.500 21.215 C 335.220 21.142,335.167 20.988,335.167 20.244 C 335.167 19.146,335.052 18.833,334.649 18.833 C 334.386 18.833,334.333 18.708,334.333 18.083 C 334.333 17.451,334.282 17.333,334.009 17.333 C 333.741 17.333,333.676 17.197,333.634 16.542 C 333.603 16.061,333.501 15.742,333.375 15.729 C 333.260 15.718,333.096 15.699,333.010 15.688 C 332.923 15.676,332.829 15.348,332.801 14.958 C 332.759 14.369,332.687 14.241,332.375 14.197 C 332.134 14.163,332.000 14.029,332.000 13.822 C 332.000 13.611,331.885 13.500,331.667 13.500 C 331.422 13.500,331.333 13.389,331.333 13.083 C 331.333 12.753,331.249 12.667,330.928 12.667 C 330.637 12.667,330.508 12.563,330.470 12.297 C 330.428 12.002,330.298 11.921,329.833 11.898 C 329.022 11.858,329.048 11.870,328.952 11.500 C 328.869 11.182,328.724 11.167,325.785 11.167 C 322.846 11.167,322.702 11.151,322.618 10.833 C 322.525 10.478,321.775 10.357,321.583 10.667 M356.637 11.540 C 356.607 11.747,356.490 11.926,356.375 11.938 C 356.260 11.949,356.092 11.968,356.000 11.979 C 355.890 11.993,355.833 20.792,355.833 38.000 L 355.833 64.000 360.083 64.000 C 364.222 64.000,364.333 63.991,364.333 63.667 C 364.333 63.444,364.444 63.333,364.667 63.333 C 364.996 63.333,365.000 63.222,365.000 53.750 L 365.000 44.167 372.333 44.167 C 379.556 44.167,379.667 44.172,379.667 44.500 C 379.667 44.744,379.778 44.833,380.083 44.833 C 380.417 44.833,380.500 44.917,380.500 45.250 C 380.500 45.556,380.589 45.667,380.833 45.667 C 381.117 45.667,381.167 45.778,381.167 46.417 C 381.167 47.106,381.201 47.167,381.583 47.167 C 381.986 47.167,382.000 47.205,382.000 48.266 C 382.000 49.224,382.043 49.376,382.333 49.452 C 382.517 49.500,382.676 49.680,382.688 49.853 C 382.699 50.025,382.718 50.335,382.729 50.542 C 382.743 50.796,382.871 50.934,383.125 50.970 C 383.473 51.019,383.500 51.107,383.500 52.178 C 383.500 53.299,383.512 53.333,383.917 53.333 C 384.319 53.333,384.333 53.371,384.333 54.432 C 384.333 55.391,384.376 55.542,384.667 55.618 C 384.936 55.689,385.000 55.846,385.000 56.436 C 385.000 57.104,385.036 57.167,385.417 57.167 C 385.821 57.167,385.833 57.200,385.833 58.333 C 385.833 59.389,385.865 59.500,386.167 59.500 C 386.382 59.500,386.507 59.618,386.521 59.833 C 386.532 60.017,386.551 60.335,386.563 60.542 C 386.576 60.793,386.704 60.934,386.949 60.969 C 387.249 61.011,387.324 61.146,387.366 61.719 C 387.408 62.297,387.481 62.426,387.792 62.470 C 388.063 62.508,388.167 62.635,388.167 62.928 C 388.167 63.297,388.234 63.333,388.917 63.333 C 389.558 63.333,389.667 63.382,389.667 63.670 C 389.667 63.999,389.751 64.005,393.458 63.961 L 397.250 63.917 397.299 62.795 C 397.351 61.623,397.158 61.000,396.744 61.000 C 396.566 61.000,396.500 60.798,396.500 60.250 C 396.500 59.611,396.451 59.500,396.167 59.500 C 395.874 59.500,395.833 59.389,395.833 58.597 C 395.833 57.479,395.720 57.167,395.316 57.167 C 395.053 57.167,395.000 57.041,395.000 56.417 C 395.000 55.728,394.966 55.667,394.583 55.667 C 394.181 55.667,394.167 55.629,394.167 54.568 C 394.167 53.617,394.123 53.457,393.841 53.384 C 393.569 53.313,393.507 53.127,393.466 52.274 C 393.424 51.397,393.363 51.226,393.042 51.085 C 392.746 50.956,392.667 50.785,392.667 50.278 C 392.667 49.776,392.594 49.616,392.333 49.548 C 392.053 49.475,392.000 49.321,392.000 48.578 C 392.000 47.484,391.885 47.167,391.490 47.167 C 391.229 47.167,391.175 47.009,391.133 46.125 C 391.088 45.189,391.045 45.078,390.708 45.030 C 390.361 44.981,390.333 44.893,390.333 43.822 C 390.333 42.778,390.301 42.667,390.000 42.667 C 389.712 42.667,389.667 42.556,389.667 41.853 C 389.667 41.179,389.724 41.024,390.000 40.952 C 390.265 40.882,390.333 40.724,390.333 40.182 C 390.333 39.566,390.373 39.500,390.750 39.500 C 391.132 39.500,391.167 39.438,391.167 38.762 C 391.167 38.123,391.217 38.016,391.542 37.970 C 391.783 37.936,391.936 37.783,391.970 37.542 C 392.004 37.301,392.138 37.167,392.345 37.167 C 392.615 37.167,392.667 37.047,392.667 36.417 C 392.667 35.728,392.701 35.667,393.083 35.667 C 393.464 35.667,393.500 35.604,393.500 34.936 C 393.500 34.346,393.564 34.189,393.833 34.118 C 394.123 34.043,394.167 33.891,394.167 32.972 C 394.167 32.033,394.209 31.894,394.542 31.748 L 394.917 31.583 394.917 25.250 L 394.917 18.917 394.542 18.863 C 394.217 18.817,394.167 18.711,394.167 18.072 C 394.167 17.451,394.115 17.333,393.842 17.333 C 393.574 17.333,393.510 17.197,393.467 16.542 C 393.437 16.061,393.335 15.742,393.208 15.729 C 393.094 15.718,392.925 15.699,392.833 15.688 C 392.742 15.676,392.667 15.517,392.667 15.333 C 392.667 15.115,392.556 15.000,392.345 15.000 C 392.138 15.000,392.004 14.866,391.970 14.625 C 391.936 14.384,391.783 14.231,391.542 14.197 C 391.301 14.163,391.167 14.029,391.167 13.822 C 391.167 13.592,391.051 13.500,390.762 13.500 C 390.468 13.500,390.342 13.396,390.303 13.125 C 390.259 12.813,390.131 12.741,389.542 12.699 C 388.984 12.658,388.833 12.582,388.833 12.342 C 388.833 11.926,388.515 11.833,387.081 11.833 C 386.007 11.833,385.843 11.793,385.751 11.504 C 385.648 11.178,385.446 11.174,371.168 11.168 L 356.690 11.163 356.637 11.540 M322.167 19.159 C 322.167 19.445,322.303 19.491,323.292 19.534 C 324.289 19.578,324.417 19.621,324.417 19.917 C 324.417 20.135,324.546 20.268,324.792 20.303 C 325.040 20.338,325.167 20.471,325.167 20.694 C 325.167 20.891,325.305 21.067,325.500 21.118 C 325.683 21.166,325.841 21.291,325.850 21.394 C 325.859 21.498,325.882 21.733,325.902 21.917 C 325.922 22.100,325.952 22.494,325.969 22.792 C 325.993 23.208,326.076 23.333,326.326 23.333 C 326.612 23.333,326.657 23.470,326.701 24.458 C 326.745 25.481,326.784 25.588,327.125 25.637 C 327.473 25.686,327.500 25.774,327.500 26.845 C 327.500 27.889,327.532 28.000,327.833 28.000 C 328.126 28.000,328.169 28.117,328.185 28.958 C 328.223 30.906,328.225 30.913,328.625 30.970 C 328.970 31.019,329.000 31.110,329.000 32.113 C 329.000 33.076,329.048 33.240,329.417 33.530 C 329.795 33.827,329.833 33.972,329.833 35.111 C 329.833 36.224,329.871 36.374,330.167 36.452 C 330.436 36.522,330.500 36.679,330.500 37.269 L 330.500 38.000 321.727 38.000 L 312.955 38.000 312.561 37.575 C 312.079 37.055,312.061 36.735,312.500 36.500 C 312.795 36.342,312.833 36.151,312.833 34.827 C 312.833 33.345,312.837 33.333,313.250 33.333 C 313.655 33.333,313.667 33.300,313.667 32.167 C 313.667 31.111,313.698 31.000,314.000 31.000 C 314.299 31.000,314.333 30.889,314.333 29.913 C 314.333 28.906,314.364 28.813,314.750 28.667 C 315.149 28.515,315.167 28.449,315.167 27.099 C 315.167 25.765,315.187 25.687,315.542 25.637 C 315.882 25.588,315.921 25.481,315.966 24.458 C 316.009 23.470,316.055 23.333,316.341 23.333 C 316.616 23.333,316.667 23.216,316.667 22.583 C 316.667 21.894,316.701 21.833,317.083 21.833 C 317.466 21.833,317.500 21.772,317.500 21.083 C 317.500 20.444,317.549 20.333,317.833 20.333 C 318.078 20.333,318.167 20.222,318.167 19.917 C 318.167 19.510,318.195 19.500,319.403 19.500 C 320.785 19.500,321.167 19.406,321.167 19.066 C 321.167 18.919,321.350 18.833,321.667 18.833 C 322.052 18.833,322.167 18.908,322.167 19.159 M380.833 19.167 C 381.103 19.436,381.389 19.500,382.322 19.500 C 383.393 19.500,383.481 19.527,383.530 19.875 C 383.564 20.116,383.717 20.269,383.958 20.303 C 384.230 20.342,384.333 20.468,384.333 20.762 C 384.333 21.056,384.425 21.167,384.667 21.167 C 384.951 21.167,385.000 21.278,385.000 21.925 C 385.000 22.519,385.090 22.766,385.417 23.069 L 385.833 23.455 385.833 26.894 L 385.833 30.333 385.417 30.333 C 385.035 30.333,385.000 30.395,385.000 31.072 C 385.000 31.664,384.934 31.832,384.667 31.917 C 384.401 32.001,384.333 32.169,384.333 32.740 C 384.333 33.378,384.292 33.454,383.958 33.437 C 383.633 33.419,383.572 33.517,383.500 34.167 L 383.417 34.917 382.667 35.000 C 382.254 35.046,381.935 35.140,381.958 35.208 C 381.981 35.277,382.000 35.408,382.000 35.500 C 382.000 35.609,379.056 35.667,373.500 35.667 L 365.000 35.667 365.000 27.250 L 365.000 18.833 372.750 18.833 C 380.278 18.833,380.510 18.843,380.833 19.167 M130.644 21.907 C 130.586 21.968,130.324 22.035,130.061 22.058 C 129.727 22.086,129.590 22.184,129.606 22.382 C 129.627 22.640,129.365 22.667,126.805 22.667 C 125.251 22.667,124.017 22.726,124.063 22.800 C 124.256 23.113,123.842 23.318,122.913 23.370 C 122.079 23.416,121.890 23.484,121.756 23.788 C 121.635 24.059,121.424 24.164,120.922 24.201 C 120.370 24.241,120.240 24.317,120.197 24.625 C 120.151 24.949,120.044 25.000,119.405 25.000 C 118.778 25.000,118.667 25.050,118.667 25.333 C 118.667 25.578,118.556 25.667,118.250 25.667 C 117.917 25.667,117.833 25.750,117.833 26.083 C 117.833 26.389,117.744 26.500,117.500 26.500 C 117.278 26.500,117.167 26.611,117.167 26.833 C 117.167 27.017,117.092 27.176,117.000 27.188 C 116.908 27.199,116.740 27.218,116.625 27.229 C 116.510 27.241,116.393 27.414,116.365 27.615 C 116.332 27.842,116.175 27.999,115.948 28.031 C 115.717 28.064,115.564 28.221,115.530 28.458 C 115.482 28.797,115.318 28.910,114.958 28.853 C 114.890 28.842,114.842 28.890,114.853 28.958 C 114.983 29.784,114.809 30.333,114.417 30.333 C 114.033 30.333,114.000 30.393,114.000 31.098 C 114.000 31.673,113.913 31.933,113.651 32.145 C 113.387 32.359,113.297 32.637,113.276 33.291 C 113.254 34.016,113.197 34.162,112.917 34.202 C 112.605 34.247,112.580 34.395,112.537 36.504 C 112.493 38.652,112.474 38.766,112.121 38.921 C 111.750 39.083,111.750 39.086,111.723 44.139 L 111.697 49.195 112.098 49.544 C 112.482 49.878,112.500 49.985,112.500 51.935 C 112.500 53.831,112.524 53.985,112.833 54.083 C 113.017 54.142,113.177 54.278,113.189 54.386 C 113.211 54.578,113.237 54.927,113.302 55.875 C 113.325 56.207,113.423 56.333,113.658 56.333 C 113.926 56.333,113.990 56.469,114.033 57.125 C 114.076 57.801,114.138 57.924,114.458 57.970 C 114.783 58.016,114.833 58.123,114.833 58.762 C 114.833 59.389,114.883 59.500,115.167 59.500 C 115.389 59.500,115.500 59.611,115.500 59.833 C 115.500 60.078,115.611 60.167,115.917 60.167 C 116.250 60.167,116.333 60.250,116.333 60.583 C 116.333 60.917,116.417 61.000,116.750 61.000 C 117.083 61.000,117.167 61.083,117.167 61.417 C 117.167 61.750,117.250 61.833,117.583 61.833 C 117.828 61.833,118.000 61.929,118.000 62.066 C 118.000 62.335,118.355 62.500,118.934 62.500 C 119.215 62.500,119.391 62.629,119.500 62.917 C 119.645 63.297,119.745 63.333,120.663 63.333 C 121.556 63.333,121.667 63.370,121.667 63.667 C 121.667 63.976,121.778 64.000,123.238 64.000 C 124.741 64.000,124.812 64.016,124.863 64.375 L 124.917 64.750 132.875 64.793 L 140.833 64.837 140.833 64.418 C 140.833 64.001,140.837 64.000,142.417 64.000 C 143.889 64.000,144.000 63.977,144.000 63.667 C 144.000 63.383,144.111 63.333,144.750 63.333 C 145.439 63.333,145.500 63.299,145.500 62.917 C 145.500 62.583,145.583 62.500,145.917 62.500 C 146.214 62.500,146.333 62.410,146.333 62.186 C 146.333 62.012,146.482 61.833,146.667 61.785 C 146.872 61.731,147.000 61.558,147.000 61.333 C 147.000 61.116,147.127 60.936,147.315 60.886 C 147.648 60.799,147.833 60.207,147.833 59.229 C 147.833 58.778,147.899 58.667,148.167 58.667 C 148.465 58.667,148.500 58.556,148.500 57.595 C 148.500 56.669,148.454 56.508,148.167 56.417 C 147.983 56.358,147.833 56.166,147.833 55.989 C 147.833 55.689,147.700 55.667,145.907 55.667 C 144.847 55.667,144.017 55.726,144.063 55.800 C 144.339 56.247,143.780 56.329,139.949 56.404 C 135.901 56.484,135.667 56.513,135.667 56.927 C 135.667 57.349,132.210 57.266,131.748 56.832 C 131.399 56.504,130.170 56.376,127.042 56.341 C 126.447 56.335,126.333 56.280,126.333 56.000 C 126.333 55.717,126.222 55.667,125.601 55.667 C 124.960 55.667,124.857 55.615,124.765 55.250 C 124.673 54.883,124.571 54.833,123.913 54.833 L 123.167 54.833 123.167 54.083 C 123.167 53.671,123.110 53.342,123.042 53.353 C 122.645 53.416,122.500 53.280,122.500 52.847 C 122.500 52.144,122.341 51.833,121.982 51.833 C 121.693 51.833,121.666 51.689,121.664 50.125 C 121.662 48.414,121.532 47.858,121.185 48.072 C 121.065 48.146,121.000 48.008,121.000 47.677 C 121.000 47.278,121.073 47.167,121.333 47.167 C 121.555 47.167,121.667 47.056,121.667 46.834 C 121.667 46.505,121.805 46.501,135.458 46.459 L 149.250 46.417 149.303 46.042 C 149.336 45.809,149.472 45.667,149.660 45.667 C 150.134 45.667,150.167 45.387,150.167 41.341 C 150.167 37.063,150.106 36.500,149.646 36.500 C 149.356 36.500,149.333 36.341,149.333 34.354 C 149.333 32.207,149.173 31.604,148.681 31.908 C 148.578 31.972,148.496 31.552,148.466 30.797 C 148.424 29.764,148.375 29.590,148.134 29.630 C 147.907 29.668,147.842 29.521,147.801 28.880 C 147.757 28.199,147.695 28.076,147.375 28.030 C 147.051 27.984,147.000 27.877,147.000 27.238 C 147.000 26.625,146.947 26.500,146.685 26.500 C 146.488 26.500,146.330 26.344,146.265 26.084 C 146.208 25.856,146.106 25.677,146.039 25.687 C 145.672 25.744,145.500 25.631,145.500 25.333 C 145.500 25.050,145.389 25.000,144.762 25.000 C 144.123 25.000,144.016 24.949,143.970 24.625 C 143.926 24.313,143.797 24.241,143.208 24.199 C 142.741 24.165,142.500 24.069,142.500 23.917 C 142.500 23.587,142.183 23.435,141.418 23.399 C 141.051 23.382,140.627 23.360,140.478 23.350 C 140.328 23.341,140.166 23.183,140.118 23.000 C 140.036 22.685,139.891 22.667,137.417 22.667 C 134.941 22.667,134.788 22.648,134.512 22.307 C 134.220 21.946,130.934 21.606,130.644 21.907 M178.078 21.992 C 177.891 22.068,177.638 22.250,177.515 22.398 C 177.324 22.628,176.830 22.667,174.063 22.667 C 170.944 22.667,170.833 22.678,170.833 23.000 C 170.833 23.292,170.716 23.336,169.875 23.353 C 169.348 23.363,168.842 23.389,168.750 23.411 C 168.658 23.432,168.415 23.461,168.208 23.475 C 167.957 23.492,167.833 23.607,167.833 23.824 C 167.833 24.093,167.697 24.157,167.042 24.199 C 166.340 24.244,166.252 24.292,166.270 24.625 C 166.287 24.942,166.205 25.000,165.742 25.000 C 165.076 25.000,164.638 25.152,164.756 25.342 C 164.862 25.514,164.253 25.864,164.105 25.716 C 164.047 25.658,164.000 25.811,164.000 26.056 C 164.000 26.419,163.924 26.500,163.583 26.500 C 163.279 26.500,163.167 26.589,163.167 26.830 C 163.167 27.045,163.018 27.198,162.742 27.267 C 162.509 27.325,162.356 27.412,162.403 27.459 C 162.544 27.599,162.162 28.184,161.997 28.081 C 161.845 27.988,161.721 28.355,161.630 29.167 C 161.604 29.396,161.490 29.593,161.375 29.604 C 161.260 29.616,161.092 29.634,161.000 29.646 C 160.908 29.657,160.833 29.962,160.833 30.322 C 160.833 30.825,160.758 31.001,160.509 31.081 C 160.168 31.189,159.911 31.721,160.073 31.983 C 160.227 32.232,160.002 32.627,159.655 32.718 C 159.378 32.790,159.333 32.955,159.333 33.901 C 159.333 34.868,159.295 35.000,159.018 35.000 C 158.586 35.000,158.558 35.136,158.515 37.408 C 158.478 39.412,158.426 39.744,158.173 39.587 C 157.886 39.410,157.833 40.149,157.833 44.347 C 157.833 48.556,157.842 48.667,158.167 48.667 C 158.479 48.667,158.501 48.783,158.514 50.542 C 158.535 53.278,158.568 53.517,158.963 53.837 C 159.243 54.064,159.327 54.342,159.366 55.180 C 159.409 56.072,159.469 56.250,159.750 56.326 C 159.933 56.376,160.090 56.548,160.097 56.708 C 160.143 57.677,160.190 57.818,160.500 57.917 C 160.683 57.975,160.833 58.167,160.833 58.345 C 160.833 58.577,160.949 58.667,161.250 58.667 C 161.633 58.667,161.667 58.728,161.667 59.417 C 161.667 60.095,161.705 60.167,162.062 60.167 C 162.366 60.167,162.452 60.253,162.437 60.542 C 162.422 60.811,162.522 60.932,162.792 60.970 C 163.024 61.003,163.167 61.139,163.167 61.327 C 163.167 61.675,163.483 61.833,164.180 61.833 C 164.556 61.833,164.667 61.909,164.667 62.167 C 164.667 62.407,164.778 62.500,165.065 62.500 C 165.351 62.500,165.493 62.618,165.568 62.917 C 165.667 63.307,165.740 63.333,166.753 63.333 C 167.722 63.333,167.833 63.368,167.833 63.667 C 167.833 63.975,167.944 64.000,169.315 64.000 C 170.759 64.000,170.800 64.011,170.902 64.418 L 171.007 64.837 178.545 64.793 L 186.083 64.750 186.137 64.375 C 186.187 64.018,186.261 64.000,187.694 64.000 C 189.058 64.000,189.206 63.969,189.285 63.667 C 189.333 63.482,189.512 63.333,189.686 63.333 C 189.910 63.333,190.000 63.214,190.000 62.917 C 190.000 62.583,190.083 62.500,190.417 62.500 C 190.722 62.500,190.833 62.411,190.833 62.167 C 190.833 61.944,190.944 61.833,191.167 61.833 C 191.456 61.833,191.500 61.722,191.500 61.000 C 191.500 60.222,191.528 60.167,191.917 60.167 C 192.298 60.167,192.333 60.104,192.333 59.436 C 192.333 58.846,192.397 58.689,192.667 58.618 C 193.138 58.495,193.145 57.402,192.676 57.253 C 192.435 57.176,192.339 56.970,192.301 56.450 L 192.250 55.750 190.792 55.702 C 189.419 55.657,189.333 55.674,189.333 55.994 C 189.333 56.281,189.225 56.334,188.625 56.339 C 187.460 56.348,180.768 56.508,180.519 56.533 C 180.392 56.545,180.249 56.703,180.202 56.882 C 180.119 57.200,180.110 57.200,179.849 56.854 C 179.597 56.520,179.401 56.494,176.582 56.422 C 174.933 56.380,173.495 56.343,173.386 56.339 C 173.278 56.336,173.142 56.183,173.083 56.000 C 172.992 55.712,172.831 55.667,171.905 55.667 C 170.873 55.667,170.833 55.651,170.833 55.250 C 170.833 54.917,170.750 54.833,170.417 54.833 C 170.111 54.833,170.000 54.744,170.000 54.500 C 170.000 54.282,169.889 54.167,169.678 54.167 C 169.471 54.167,169.337 54.033,169.303 53.792 C 169.269 53.551,169.116 53.398,168.875 53.363 C 168.551 53.317,168.500 53.211,168.500 52.572 C 168.500 51.944,168.450 51.833,168.167 51.833 C 167.861 51.833,167.833 51.722,167.833 50.512 C 167.833 49.226,167.628 48.667,167.155 48.667 C 167.063 48.667,167.000 46.793,167.000 44.083 C 167.000 39.697,167.014 39.500,167.316 39.500 C 167.743 39.500,167.833 39.189,167.833 37.721 C 167.833 36.609,167.871 36.459,168.167 36.382 C 168.430 36.313,168.500 36.154,168.500 35.625 C 168.500 35.124,168.605 34.857,168.917 34.569 C 169.151 34.352,169.333 33.997,169.333 33.758 C 169.333 33.444,169.421 33.333,169.667 33.333 C 169.885 33.333,170.000 33.222,170.000 33.012 C 170.000 32.805,170.134 32.671,170.375 32.637 C 170.616 32.602,170.769 32.449,170.803 32.208 C 170.849 31.884,170.956 31.833,171.595 31.833 C 172.271 31.833,172.333 31.798,172.333 31.417 C 172.333 31.003,172.345 31.000,173.822 31.000 C 175.164 31.000,175.321 30.967,175.417 30.667 C 175.520 30.343,175.669 30.333,180.833 30.333 C 185.998 30.333,186.147 30.343,186.250 30.667 C 186.351 30.984,186.502 31.000,189.345 31.000 L 192.333 31.000 192.333 30.250 C 192.333 29.620,192.385 29.500,192.655 29.500 C 192.833 29.500,193.023 29.356,193.079 29.181 C 193.190 28.831,193.032 28.003,192.858 28.025 C 192.401 28.085,192.333 27.942,192.333 26.917 C 192.333 26.321,192.258 25.822,192.167 25.808 C 192.075 25.795,191.906 25.776,191.792 25.767 C 191.672 25.757,191.548 25.430,191.500 25.000 C 191.453 24.573,191.327 24.241,191.208 24.229 C 191.094 24.218,190.925 24.199,190.833 24.188 C 190.742 24.176,190.667 24.017,190.667 23.833 C 190.667 23.594,190.549 23.494,190.250 23.479 C 190.021 23.468,189.758 23.440,189.667 23.417 C 189.575 23.394,189.275 23.366,189.000 23.354 C 188.618 23.338,188.500 23.255,188.500 23.000 C 188.500 22.677,188.389 22.667,185.019 22.667 C 181.774 22.667,181.533 22.646,181.458 22.359 C 181.332 21.877,178.989 21.622,178.078 21.992 M268.273 21.955 C 267.980 21.998,267.763 22.150,267.712 22.346 C 267.633 22.646,267.450 22.667,264.814 22.667 C 262.158 22.667,261.980 22.687,261.642 23.024 C 261.382 23.285,261.053 23.391,260.434 23.413 C 259.196 23.459,259.167 23.469,259.167 23.833 C 259.167 24.117,259.056 24.167,258.417 24.167 C 257.728 24.167,257.667 24.201,257.667 24.583 C 257.667 24.973,257.612 25.000,256.814 25.000 C 256.055 25.000,255.970 25.035,256.045 25.320 C 256.106 25.554,256.022 25.667,255.731 25.740 C 255.479 25.803,255.333 25.961,255.333 26.170 C 255.333 26.444,255.220 26.500,254.661 26.500 C 253.953 26.500,253.852 26.605,253.765 27.435 C 253.729 27.779,253.613 27.932,253.357 27.970 C 253.108 28.007,253.000 28.142,253.000 28.417 C 253.000 28.698,252.893 28.825,252.625 28.863 C 252.313 28.908,252.241 29.036,252.199 29.625 C 252.157 30.198,252.085 30.333,251.824 30.333 C 251.554 30.333,251.500 30.451,251.500 31.044 C 251.500 31.621,251.430 31.785,251.125 31.919 C 250.803 32.060,250.743 32.230,250.700 33.125 C 250.657 34.030,250.608 34.167,250.325 34.167 C 249.944 34.167,249.974 34.047,249.905 35.829 C 249.862 36.957,249.790 37.286,249.551 37.461 C 249.050 37.827,248.996 51.000,249.495 51.000 C 249.802 51.000,249.836 51.112,249.857 52.208 C 249.870 52.873,249.895 53.567,249.912 53.750 C 249.929 53.933,249.956 54.252,249.971 54.458 C 249.991 54.713,250.107 54.833,250.333 54.833 C 250.617 54.833,250.670 54.951,250.686 55.625 C 250.716 56.867,250.728 56.907,251.125 57.081 C 251.462 57.229,251.629 57.847,251.520 58.542 C 251.509 58.610,251.645 58.667,251.822 58.667 C 252.029 58.667,252.163 58.801,252.197 59.042 C 252.231 59.283,252.384 59.436,252.625 59.470 C 252.866 59.504,253.000 59.638,253.000 59.845 C 253.000 60.079,253.116 60.167,253.427 60.167 C 253.661 60.167,253.811 60.235,253.759 60.318 C 253.599 60.578,253.854 61.000,254.173 61.000 C 254.361 61.000,254.497 61.143,254.530 61.375 C 254.564 61.616,254.717 61.769,254.958 61.803 C 255.199 61.837,255.333 61.971,255.333 62.178 C 255.333 62.448,255.453 62.500,256.083 62.500 C 256.772 62.500,256.833 62.534,256.833 62.917 C 256.833 63.299,256.894 63.333,257.583 63.333 C 258.222 63.333,258.333 63.383,258.333 63.667 C 258.333 63.968,258.444 64.000,259.500 64.000 C 260.633 64.000,260.667 64.012,260.667 64.417 L 260.667 64.833 263.000 64.833 C 265.198 64.833,265.355 64.855,265.708 65.208 C 266.402 65.903,272.833 65.854,272.833 65.155 C 272.833 64.853,272.973 64.833,275.167 64.833 L 277.500 64.833 277.500 64.417 C 277.500 64.005,277.516 64.000,278.932 64.000 C 280.212 64.000,280.374 63.965,280.450 63.675 C 280.516 63.422,280.706 63.339,281.309 63.300 C 281.967 63.258,282.091 63.194,282.137 62.875 C 282.174 62.610,282.302 62.500,282.575 62.500 C 282.821 62.500,282.993 62.379,283.048 62.167 C 283.106 61.945,283.276 61.833,283.554 61.833 C 284.191 61.833,284.500 61.664,284.500 61.316 C 284.500 61.111,284.617 61.000,284.833 61.000 C 285.078 61.000,285.167 60.889,285.167 60.583 C 285.167 60.250,285.250 60.167,285.583 60.167 C 285.966 60.167,286.000 60.106,286.000 59.417 C 286.000 58.728,286.034 58.667,286.417 58.667 C 286.799 58.667,286.833 58.606,286.833 57.917 C 286.833 57.278,286.883 57.167,287.167 57.167 C 287.450 57.167,287.500 57.056,287.500 56.428 C 287.500 55.789,287.551 55.683,287.875 55.637 C 288.216 55.588,288.255 55.481,288.299 54.458 C 288.343 53.470,288.388 53.333,288.674 53.333 C 288.975 53.333,289.000 53.210,289.000 51.750 C 289.000 50.308,289.028 50.167,289.316 50.167 C 289.819 50.167,289.833 49.972,289.833 43.070 L 289.833 36.500 289.417 36.500 L 289.000 36.500 289.000 34.583 C 289.000 32.793,288.979 32.667,288.674 32.667 C 288.388 32.667,288.343 32.530,288.299 31.542 C 288.255 30.519,288.216 30.412,287.875 30.363 C 287.551 30.317,287.500 30.211,287.500 29.572 C 287.500 28.944,287.450 28.833,287.167 28.833 C 286.933 28.833,286.833 28.721,286.831 28.458 C 286.827 27.753,286.634 27.333,286.314 27.333 C 286.090 27.333,286.000 27.214,286.000 26.917 C 286.000 26.583,285.917 26.500,285.583 26.500 C 285.250 26.500,285.167 26.417,285.167 26.083 C 285.167 25.854,285.110 25.676,285.042 25.686 C 284.698 25.741,284.513 25.636,284.417 25.333 C 284.335 25.076,284.164 25.000,283.667 25.000 C 283.126 25.000,283.015 24.940,282.970 24.625 C 282.924 24.305,282.801 24.243,282.125 24.199 C 281.469 24.157,281.333 24.093,281.333 23.824 C 281.333 23.646,281.277 23.497,281.208 23.493 C 279.806 23.416,279.043 23.255,278.785 22.983 C 278.515 22.697,278.219 22.667,275.671 22.667 C 273.069 22.667,272.848 22.643,272.757 22.355 C 272.612 21.897,270.137 21.676,268.273 21.955 M134.833 29.917 C 134.833 30.321,134.868 30.333,135.981 30.333 C 136.988 30.333,137.138 30.374,137.215 30.667 C 137.284 30.932,137.442 31.000,137.984 31.000 C 138.601 31.000,138.667 31.040,138.667 31.417 C 138.667 31.722,138.756 31.833,139.000 31.833 C 139.257 31.833,139.333 31.944,139.333 32.320 C 139.333 33.023,139.492 33.333,139.851 33.333 C 140.134 33.333,140.167 33.470,140.167 34.667 C 140.167 35.494,140.234 36.000,140.343 36.000 C 140.440 36.000,140.473 36.075,140.417 36.167 C 140.360 36.258,140.431 36.333,140.573 36.333 C 140.786 36.333,140.833 36.562,140.833 37.583 C 140.833 38.722,140.804 38.833,140.500 38.833 C 140.278 38.833,140.167 38.944,140.167 39.167 C 140.167 39.496,140.056 39.500,130.917 39.500 L 121.667 39.500 121.667 37.167 L 121.667 34.833 122.083 34.833 C 122.466 34.833,122.500 34.772,122.500 34.083 C 122.500 33.444,122.549 33.333,122.833 33.333 C 123.078 33.333,123.167 33.222,123.167 32.917 C 123.167 32.605,123.255 32.500,123.516 32.500 C 123.724 32.500,123.900 32.366,123.952 32.167 C 124.000 31.983,124.179 31.833,124.350 31.833 C 124.542 31.833,124.700 31.675,124.765 31.417 C 124.830 31.156,124.987 31.000,125.185 31.000 C 125.389 31.000,125.500 30.883,125.500 30.667 C 125.500 30.358,125.611 30.333,126.997 30.333 C 128.454 30.333,128.496 30.322,128.598 29.917 L 128.703 29.500 131.768 29.500 L 134.833 29.500 134.833 29.917 M275.285 30.667 C 275.355 30.936,275.512 31.000,276.103 31.000 C 276.771 31.000,276.833 31.036,276.833 31.417 C 276.833 31.749,276.917 31.833,277.245 31.833 C 277.539 31.833,277.629 31.903,277.562 32.079 C 277.501 32.237,277.623 32.397,277.900 32.523 C 278.138 32.631,278.333 32.858,278.333 33.027 C 278.333 33.221,278.454 33.333,278.663 33.333 C 278.877 33.333,279.031 33.481,279.098 33.750 C 279.163 34.006,279.321 34.167,279.510 34.167 C 279.774 34.167,279.825 34.327,279.867 35.292 C 279.912 36.314,279.951 36.422,280.292 36.470 L 280.667 36.523 280.667 43.113 C 280.667 48.752,280.632 49.689,280.429 49.611 C 280.187 49.518,279.801 49.848,279.847 50.107 C 279.997 50.944,279.802 52.627,279.558 52.606 C 279.247 52.580,278.948 53.403,279.097 53.875 C 279.168 54.101,279.093 54.167,278.761 54.167 C 278.444 54.167,278.333 54.253,278.333 54.500 C 278.333 54.721,278.222 54.833,278.003 54.833 C 277.790 54.833,277.636 54.981,277.568 55.250 C 277.489 55.567,277.348 55.672,276.982 55.688 C 276.150 55.723,276.083 55.751,276.106 56.046 C 276.129 56.330,276.024 56.365,275.125 56.374 C 274.873 56.376,274.475 56.556,274.241 56.772 L 273.816 57.167 269.158 57.167 C 264.611 57.167,264.500 57.159,264.500 56.833 C 264.500 56.650,264.406 56.487,264.292 56.471 C 263.894 56.417,263.414 56.380,262.792 56.357 C 262.286 56.338,262.167 56.270,262.167 56.000 C 262.167 55.782,262.056 55.667,261.845 55.667 C 261.638 55.667,261.504 55.533,261.470 55.292 C 261.436 55.051,261.283 54.898,261.042 54.863 C 260.801 54.829,260.667 54.695,260.667 54.488 C 260.667 54.258,260.551 54.167,260.259 54.167 C 259.891 54.167,259.847 54.090,259.801 53.375 C 259.764 52.805,259.680 52.583,259.500 52.583 C 259.312 52.583,259.229 52.315,259.167 51.500 C 259.092 50.533,259.043 50.411,258.708 50.363 L 258.333 50.310 258.333 44.155 C 258.333 38.227,258.345 38.000,258.649 38.000 C 259.053 38.000,259.167 37.687,259.167 36.570 C 259.167 35.778,259.208 35.667,259.500 35.667 C 259.783 35.667,259.833 35.556,259.833 34.928 C 259.833 34.289,259.884 34.183,260.208 34.137 C 260.443 34.103,260.602 33.949,260.634 33.725 C 260.662 33.528,260.829 33.330,261.005 33.284 C 261.228 33.226,261.357 32.994,261.433 32.517 C 261.542 31.837,261.547 31.833,262.271 31.833 C 262.937 31.833,263.000 31.798,263.000 31.417 C 263.000 31.015,263.040 31.000,264.072 31.000 C 264.998 31.000,265.159 30.954,265.250 30.667 C 265.353 30.343,265.502 30.333,270.277 30.333 C 275.058 30.333,275.200 30.343,275.285 30.667 " stroke="none" fill="#04347c" fill-rule="evenodd"></path><path id="path3" d="M32.785 25.907 C 32.445 26.314,32.167 26.754,32.167 26.884 C 32.167 27.015,32.028 27.301,31.858 27.519 C 31.688 27.738,31.452 28.217,31.333 28.583 C 31.215 28.950,30.979 29.511,30.809 29.831 C 30.639 30.150,30.500 30.514,30.500 30.638 C 30.500 30.762,30.350 31.055,30.167 31.288 C 29.983 31.521,29.833 31.916,29.833 32.167 C 29.833 32.417,29.671 32.828,29.472 33.081 C 29.273 33.334,29.051 33.916,28.979 34.375 C 28.906 34.834,28.725 35.344,28.576 35.508 C 28.427 35.673,28.262 36.132,28.209 36.529 C 28.156 36.925,27.969 37.445,27.794 37.683 C 27.619 37.921,27.432 38.438,27.379 38.833 C 27.326 39.228,27.144 39.689,26.975 39.859 C 26.759 40.074,26.667 40.411,26.667 40.981 C 26.667 41.665,26.600 41.838,26.250 42.068 C 25.889 42.305,25.833 42.464,25.833 43.259 C 25.833 43.981,25.771 44.200,25.542 44.285 C 25.114 44.442,25.005 44.672,25.003 45.422 C 25.001 45.899,24.904 46.162,24.668 46.333 C 24.453 46.487,24.298 46.850,24.231 47.355 C 24.155 47.928,24.044 48.160,23.814 48.220 C 23.580 48.281,23.500 48.455,23.500 48.901 L 23.500 49.500 12.333 49.500 L 1.167 49.500 1.167 49.861 C 1.167 50.295,1.017 50.188,0.920 49.685 C 0.882 49.485,0.921 49.368,1.009 49.422 C 1.096 49.476,1.167 49.440,1.167 49.343 C 1.167 49.246,1.082 49.167,0.980 49.167 C 0.850 49.167,0.857 49.089,1.000 48.917 C 1.174 48.707,1.148 48.667,0.844 48.667 C 0.644 48.667,0.527 48.742,0.583 48.833 C 0.640 48.925,0.532 49.000,0.343 49.000 C -0.053 49.000,-0.200 51.572,0.189 51.702 C 0.293 51.736,0.409 52.174,0.448 52.674 C 0.498 53.326,0.611 53.655,0.847 53.838 C 1.062 54.004,1.190 54.324,1.214 54.755 C 1.241 55.261,1.338 55.455,1.625 55.581 C 1.919 55.710,2.000 55.882,2.000 56.377 C 2.000 56.897,2.073 57.036,2.418 57.167 C 2.648 57.255,2.826 57.384,2.815 57.455 C 2.752 57.840,2.868 58.186,3.149 58.452 C 3.322 58.616,3.492 58.900,3.525 59.083 C 3.560 59.270,3.742 59.439,3.941 59.467 C 4.253 59.512,4.600 60.241,4.526 60.697 C 4.516 60.759,4.801 60.783,5.160 60.751 C 5.584 60.712,5.882 60.774,6.010 60.929 C 6.131 61.075,6.518 61.167,7.010 61.167 C 7.794 61.167,8.657 61.395,8.830 61.648 C 9.276 62.298,14.966 62.610,16.797 62.083 C 19.802 61.220,21.015 60.705,22.500 59.666 C 22.637 59.570,22.947 59.362,23.187 59.204 C 24.151 58.571,24.560 58.245,25.308 57.514 C 26.656 56.195,28.500 53.814,28.500 53.392 C 28.500 53.296,28.652 53.042,28.838 52.828 C 29.024 52.614,29.215 52.246,29.262 52.011 C 29.309 51.776,29.532 51.235,29.757 50.809 C 29.983 50.383,30.167 49.886,30.167 49.704 C 30.167 49.523,30.277 49.282,30.412 49.170 C 30.547 49.058,30.707 48.693,30.768 48.358 C 30.828 48.024,30.975 47.557,31.094 47.322 C 31.213 47.086,31.584 46.036,31.918 44.989 C 32.252 43.941,32.629 42.858,32.755 42.583 C 32.881 42.308,33.067 41.746,33.169 41.333 C 33.270 40.921,33.455 40.358,33.579 40.083 C 33.704 39.808,33.860 39.283,33.927 38.917 C 33.994 38.550,34.188 37.989,34.358 37.669 C 34.528 37.350,34.667 36.899,34.667 36.667 C 34.667 36.435,34.807 35.984,34.978 35.664 C 35.149 35.345,35.345 34.821,35.413 34.500 C 35.481 34.179,35.670 33.654,35.834 33.333 C 36.220 32.575,37.165 30.080,37.172 29.800 C 37.175 29.681,37.287 29.438,37.422 29.260 C 37.962 28.546,37.685 27.333,36.982 27.333 C 36.611 27.333,36.500 27.257,36.500 27.000 C 36.500 26.755,36.389 26.667,36.079 26.667 C 35.784 26.667,35.611 26.543,35.500 26.250 C 35.371 25.912,35.228 25.833,34.739 25.833 C 34.276 25.833,34.115 25.756,34.048 25.500 C 33.908 24.964,33.450 25.112,32.785 25.907 M34.085 26.167 C 34.209 26.167,34.436 26.293,34.589 26.447 C 34.906 26.764,35.623 27.187,36.542 27.602 C 37.175 27.887,37.457 28.801,37.000 29.083 C 36.908 29.140,36.833 29.351,36.832 29.552 C 36.831 29.752,36.646 30.292,36.420 30.750 C 36.195 31.208,36.008 31.696,36.005 31.833 C 36.001 31.971,35.858 32.315,35.685 32.597 C 35.513 32.880,35.318 33.367,35.253 33.681 C 35.188 33.994,35.028 34.417,34.899 34.620 C 34.770 34.824,34.561 35.424,34.433 35.954 C 34.305 36.483,34.081 37.196,33.934 37.536 C 33.787 37.877,33.667 38.311,33.667 38.501 C 33.667 38.691,33.517 39.141,33.333 39.500 C 33.150 39.859,32.998 40.325,32.995 40.535 C 32.992 40.745,32.805 41.292,32.580 41.750 C 32.354 42.208,32.169 42.755,32.168 42.965 C 32.167 43.175,32.027 43.625,31.856 43.965 C 31.685 44.305,31.492 44.883,31.427 45.250 C 31.362 45.617,31.215 46.067,31.100 46.250 C 30.985 46.433,30.792 46.947,30.670 47.391 C 30.548 47.835,30.309 48.470,30.141 48.801 C 29.972 49.133,29.833 49.496,29.833 49.610 C 29.833 49.723,29.646 50.168,29.417 50.599 C 29.188 51.030,29.000 51.517,29.000 51.682 C 29.000 51.846,28.934 52.021,28.853 52.071 C 28.772 52.121,28.543 52.482,28.345 52.873 C 27.319 54.895,25.070 57.606,23.924 58.202 C 23.737 58.300,23.471 58.483,23.333 58.610 C 22.759 59.140,20.707 60.390,20.167 60.540 C 19.846 60.629,19.479 60.787,19.350 60.891 C 19.132 61.070,17.717 61.472,16.000 61.845 C 14.001 62.278,10.920 62.026,11.096 61.443 C 11.269 60.867,11.395 60.808,12.860 60.607 C 13.634 60.501,14.432 60.288,14.662 60.125 C 14.889 59.965,15.192 59.833,15.337 59.833 C 15.482 59.833,16.064 59.496,16.631 59.083 C 17.198 58.671,17.733 58.333,17.821 58.333 C 18.096 58.333,21.261 55.126,21.853 54.247 C 22.919 52.666,24.991 48.104,25.411 46.413 C 25.525 45.952,25.742 45.337,25.893 45.046 C 26.043 44.755,26.167 44.434,26.167 44.332 C 26.167 44.231,26.319 43.815,26.504 43.407 C 26.690 42.999,26.913 42.291,27.000 41.834 C 27.087 41.376,27.264 40.833,27.393 40.626 C 27.523 40.419,27.681 39.950,27.744 39.583 C 27.807 39.217,27.954 38.767,28.070 38.583 C 28.187 38.400,28.380 37.837,28.499 37.333 C 28.618 36.829,28.777 36.376,28.852 36.327 C 28.927 36.278,29.104 35.786,29.246 35.235 C 29.387 34.683,29.652 33.939,29.835 33.581 C 30.017 33.223,30.167 32.835,30.167 32.719 C 30.167 32.603,30.316 32.262,30.499 31.962 C 30.682 31.662,30.832 31.258,30.833 31.064 C 30.833 30.870,30.974 30.533,31.145 30.314 C 31.316 30.096,31.511 29.667,31.578 29.361 C 31.842 28.153,33.224 25.922,33.616 26.073 C 33.750 26.124,33.962 26.167,34.085 26.167 M0.727 36.750 C 0.780 36.887,0.763 37.000,0.689 37.000 C 0.616 37.000,0.556 37.105,0.556 37.234 C 0.556 37.363,0.639 37.436,0.742 37.397 C 0.986 37.303,1.050 36.500,0.814 36.500 C 0.713 36.500,0.674 36.612,0.727 36.750 M0.208 38.944 C -0.039 39.043,-0.074 39.667,0.167 39.667 C 0.258 39.667,0.339 39.610,0.346 39.542 C 0.353 39.473,0.384 39.285,0.415 39.125 C 0.445 38.965,0.458 38.839,0.444 38.846 C 0.429 38.854,0.323 38.897,0.208 38.944 M0.000 47.250 C 0.000 47.422,0.109 47.503,0.292 47.468 C 0.643 47.401,0.621 47.105,0.259 47.029 C 0.108 46.998,0.000 47.090,0.000 47.250 M14.365 67.456 C 14.433 67.813,14.994 67.946,15.177 67.649 C 15.370 67.338,15.210 67.167,14.728 67.167 C 14.420 67.167,14.324 67.243,14.365 67.456 M16.717 68.072 C 16.938 68.239,16.960 68.319,16.801 68.372 C 16.682 68.412,16.913 68.497,17.314 68.561 C 18.169 68.698,18.258 68.649,18.008 68.181 C 17.863 67.911,17.664 67.835,17.119 67.839 C 16.489 67.843,16.448 67.867,16.717 68.072 M71.375 69.453 C 71.627 69.491,72.040 69.491,72.292 69.453 C 72.544 69.415,72.337 69.383,71.833 69.383 C 71.329 69.383,71.123 69.415,71.375 69.453 M73.875 69.455 C 74.219 69.491,74.781 69.491,75.125 69.455 C 75.469 69.419,75.188 69.389,74.500 69.389 C 73.813 69.389,73.531 69.419,73.875 69.455 " stroke="none" fill="#0c84c4" fill-rule="evenodd"></path><path id="path4" d="M33.017 26.476 C 32.451 27.270,31.710 28.757,31.578 29.361 C 31.511 29.667,31.316 30.096,31.145 30.314 C 30.974 30.533,30.833 30.870,30.833 31.064 C 30.832 31.258,30.682 31.662,30.499 31.962 C 30.316 32.262,30.167 32.603,30.167 32.719 C 30.167 32.835,30.017 33.223,29.835 33.581 C 29.652 33.939,29.387 34.683,29.246 35.235 C 29.104 35.786,28.927 36.278,28.852 36.327 C 28.777 36.376,28.618 36.829,28.499 37.333 C 28.380 37.837,28.187 38.400,28.070 38.583 C 27.954 38.767,27.807 39.217,27.744 39.583 C 27.681 39.950,27.523 40.419,27.393 40.626 C 27.264 40.833,27.087 41.376,27.000 41.834 C 26.913 42.291,26.690 42.999,26.504 43.407 C 26.319 43.815,26.167 44.231,26.167 44.332 C 26.167 44.434,26.043 44.755,25.893 45.046 C 25.742 45.337,25.525 45.952,25.411 46.413 C 24.991 48.104,22.919 52.666,21.853 54.247 C 21.261 55.126,18.096 58.333,17.821 58.333 C 17.733 58.333,17.198 58.671,16.631 59.083 C 16.064 59.496,15.482 59.833,15.337 59.833 C 15.192 59.833,14.889 59.965,14.662 60.125 C 14.432 60.288,13.634 60.501,12.860 60.607 C 11.395 60.808,11.269 60.867,11.096 61.443 C 10.844 62.279,14.858 62.273,17.583 61.433 L 18.417 61.176 17.667 61.236 C 17.254 61.269,16.617 61.392,16.250 61.509 C 15.883 61.626,14.777 61.751,13.792 61.788 L 12.000 61.854 12.000 61.445 C 12.000 60.947,12.263 60.833,13.408 60.833 C 14.008 60.833,14.415 60.736,14.686 60.527 C 14.904 60.358,15.325 60.137,15.621 60.037 C 15.917 59.936,16.255 59.770,16.371 59.669 C 16.488 59.568,16.983 59.233,17.472 58.924 C 18.486 58.283,19.500 57.402,19.500 57.163 C 19.500 57.073,19.579 57.000,19.675 57.000 C 20.134 57.000,22.081 54.650,22.896 53.113 C 23.227 52.487,23.611 51.814,23.749 51.617 C 23.887 51.420,24.000 51.144,24.000 51.003 C 24.000 50.863,24.188 50.395,24.417 49.965 C 24.646 49.534,24.833 49.059,24.833 48.908 C 24.833 48.758,24.973 48.436,25.143 48.192 C 25.313 47.949,25.502 47.429,25.562 47.036 C 25.623 46.643,25.821 46.044,26.003 45.705 C 26.185 45.366,26.333 44.929,26.333 44.733 C 26.333 44.538,26.472 44.199,26.642 43.981 C 26.811 43.762,27.001 43.255,27.063 42.854 C 27.126 42.453,27.318 41.816,27.490 41.438 C 27.661 41.059,27.855 40.394,27.920 39.958 C 27.985 39.523,28.092 39.167,28.159 39.167 C 28.361 39.167,28.667 38.350,28.667 37.810 C 28.667 37.531,28.808 37.123,28.981 36.903 C 29.154 36.684,29.348 36.147,29.412 35.710 C 29.477 35.274,29.642 34.791,29.780 34.637 C 29.917 34.483,30.101 34.041,30.188 33.656 C 30.274 33.270,30.493 32.767,30.673 32.538 C 30.853 32.309,31.000 31.893,31.000 31.613 C 31.000 31.331,31.151 30.944,31.340 30.743 C 31.527 30.544,31.726 30.089,31.783 29.732 C 31.840 29.375,32.025 28.962,32.193 28.814 C 32.362 28.666,32.501 28.403,32.502 28.230 C 32.507 27.620,32.701 27.196,33.015 27.114 C 33.191 27.068,33.333 26.886,33.333 26.705 C 33.333 26.287,34.140 26.397,34.468 26.859 C 34.588 27.028,34.782 27.167,34.900 27.167 C 35.018 27.167,35.243 27.308,35.399 27.481 C 35.556 27.654,35.915 27.841,36.198 27.898 L 36.713 28.001 36.598 29.115 C 36.513 29.946,36.401 30.288,36.159 30.458 C 35.929 30.619,35.833 30.880,35.833 31.348 C 35.833 31.769,35.746 32.044,35.595 32.102 C 35.301 32.215,35.000 33.041,35.000 33.735 C 35.000 34.060,34.884 34.325,34.689 34.447 C 34.475 34.581,34.353 34.904,34.297 35.489 C 34.252 35.955,34.094 36.470,33.946 36.634 C 33.799 36.797,33.626 37.370,33.563 37.908 C 33.497 38.470,33.329 39.005,33.167 39.166 C 33.012 39.321,32.839 39.843,32.782 40.326 C 32.723 40.825,32.566 41.287,32.419 41.394 C 32.269 41.504,32.117 41.966,32.057 42.500 C 31.997 43.033,31.833 43.532,31.667 43.693 C 31.509 43.845,31.328 44.363,31.264 44.845 C 31.200 45.327,31.002 45.907,30.824 46.133 C 30.646 46.360,30.500 46.787,30.500 47.083 C 30.500 47.379,30.361 47.801,30.192 48.019 C 30.022 48.238,29.833 48.740,29.771 49.136 C 29.710 49.532,29.511 50.014,29.330 50.209 C 29.148 50.404,28.999 50.717,28.998 50.906 C 28.996 51.095,28.888 51.438,28.758 51.667 C 28.627 51.896,28.412 52.316,28.279 52.599 C 27.992 53.215,26.969 54.701,26.308 55.464 C 26.047 55.765,25.833 56.121,25.833 56.256 C 25.833 56.390,25.754 56.500,25.657 56.500 C 25.560 56.500,25.163 56.822,24.776 57.215 C 24.388 57.608,23.830 58.030,23.535 58.152 C 23.241 58.274,23.000 58.442,23.000 58.524 C 23.000 58.607,22.811 58.747,22.579 58.835 C 22.348 58.923,22.115 59.109,22.061 59.247 C 22.008 59.386,21.870 59.500,21.755 59.500 C 21.641 59.500,21.282 59.680,20.958 59.899 C 20.634 60.119,20.117 60.354,19.810 60.421 C 19.081 60.580,18.279 61.167,18.790 61.167 C 18.975 61.167,19.215 61.059,19.324 60.927 C 19.434 60.796,19.762 60.638,20.053 60.576 C 20.542 60.472,22.754 59.147,23.333 58.611 C 23.471 58.484,23.737 58.300,23.924 58.202 C 25.070 57.606,27.319 54.895,28.345 52.873 C 28.543 52.482,28.772 52.121,28.853 52.071 C 28.934 52.021,29.000 51.846,29.000 51.682 C 29.000 51.517,29.188 51.030,29.417 50.599 C 29.646 50.168,29.833 49.723,29.833 49.610 C 29.833 49.496,29.972 49.133,30.141 48.801 C 30.309 48.470,30.548 47.835,30.670 47.391 C 30.792 46.947,30.985 46.433,31.100 46.250 C 31.215 46.067,31.362 45.617,31.427 45.250 C 31.492 44.883,31.685 44.305,31.856 43.965 C 32.027 43.625,32.167 43.175,32.168 42.965 C 32.169 42.755,32.354 42.208,32.580 41.750 C 32.805 41.292,32.992 40.745,32.995 40.535 C 32.998 40.325,33.150 39.859,33.333 39.500 C 33.517 39.141,33.667 38.691,33.667 38.501 C 33.667 38.311,33.787 37.877,33.934 37.536 C 34.081 37.196,34.305 36.483,34.433 35.954 C 34.561 35.424,34.770 34.824,34.899 34.620 C 35.028 34.417,35.188 33.994,35.253 33.681 C 35.318 33.367,35.513 32.880,35.685 32.597 C 35.858 32.315,36.001 31.971,36.005 31.833 C 36.008 31.696,36.195 31.208,36.420 30.750 C 36.646 30.292,36.831 29.752,36.832 29.552 C 36.833 29.351,36.908 29.140,37.000 29.083 C 37.457 28.801,37.175 27.887,36.542 27.602 C 35.623 27.187,34.906 26.764,34.589 26.447 C 34.436 26.293,34.209 26.167,34.085 26.167 C 33.962 26.167,33.750 26.124,33.616 26.073 C 33.465 26.015,33.235 26.170,33.017 26.476 M139.208 56.448 C 139.369 56.490,139.631 56.490,139.792 56.448 C 139.952 56.406,139.821 56.372,139.500 56.372 C 139.179 56.372,139.048 56.406,139.208 56.448 " stroke="none" fill="#0c74b8" fill-rule="evenodd"></path></g></svg>