<svg width="248" height="84" viewBox="0 0 248 84" fill="none" xmlns="http://www.w3.org/2000/svg">
<g clip-path="url(#clip0)">
<path d="M32.5296 45.974C33.1641 46.1009 33.8408 46.0586 34.4753 45.8894C35.8711 45.5933 37.2247 45.255 38.6205 44.9589C39.551 44.7474 40.2701 44.2398 40.82 43.4362C40.9469 43.267 41.0738 43.0555 41.2007 42.8863C41.6236 42.421 41.962 42.4633 42.2158 43.0555C42.2581 43.1824 42.3427 43.3516 42.385 43.4785C42.7234 44.9589 43.8231 45.3819 45.1344 45.5511C45.5151 45.5934 45.8534 45.5511 46.1072 45.2973C47.0378 44.1129 48.1375 43.0132 48.6028 41.5327C49.1104 39.9254 48.8989 38.3604 48.2221 36.8377C48.3067 36.1186 48.4759 35.3995 48.7297 34.7228C49.4488 32.6079 49.2373 30.5776 48.3067 28.5896C48.0952 27.9974 47.7146 27.659 47.0801 27.5744C46.5725 27.4898 46.3187 27.3206 46.5725 26.7285C46.9532 25.7556 46.6148 24.825 45.8534 24.4021C45.0498 23.9368 43.7808 24.106 43.1464 24.825C43.0195 24.9519 42.9349 25.0788 43.0195 25.2903C43.3579 26.0094 43.654 26.7285 44.1615 27.3206C44.5845 27.8282 45.1344 27.9128 45.7689 27.9128C45.0921 28.6319 43.5694 28.5896 43.1887 27.8282C42.6388 26.8977 42.1312 25.9248 41.6659 24.9519C41.0738 23.683 42.2158 22.118 43.7808 21.8642C45.6843 21.5681 47.4185 23.0062 47.5031 24.9519C47.5031 25.3326 47.3339 25.8825 47.8838 25.9248C48.4336 26.0094 48.3913 25.4172 48.5605 25.0365C48.9412 23.8945 48.5605 23.0062 47.8414 22.1603C47.4608 21.695 46.8263 21.272 46.7417 20.7644C46.6571 20.2992 47.2493 19.7916 47.4608 19.2417C48.2644 17.3383 48.349 15.4772 47.3339 13.6161C46.6571 12.4317 46.1495 12.0934 44.796 12.3471C43.1041 12.6432 41.6659 13.4469 40.1855 14.2506C39.8471 14.4197 39.8471 14.6735 40.0586 14.9696C40.1432 15.1388 40.3547 15.308 40.1855 15.4772C40.0163 15.6464 39.8048 15.5195 39.6356 15.4349C34.8137 13.4892 29.7379 13.2777 24.6622 13.3623C23.5624 13.4046 22.8433 13.2354 22.2089 12.3048C21.5744 11.332 20.7284 10.486 19.8825 9.68237C19.1634 9.0056 18.3175 8.83642 17.5138 9.38629C15.9488 10.4437 14.4684 11.6281 14.2569 13.7007C14.0877 15.6041 14.1723 17.5075 14.6798 19.3686C14.7221 19.4532 14.7644 19.5801 14.7644 19.6647C14.8067 19.9185 14.9336 20.2146 14.6375 20.3838C14.3415 20.553 14.1723 20.2569 14.0454 20.0454C13.7916 19.6224 13.4955 19.4955 13.1148 19.9185C10.5346 23.2177 8.20825 26.6439 6.81241 30.6622C6.26254 32.1849 6.51633 33.7076 6.81241 35.2304C7.31999 37.5567 7.0662 39.7562 5.88186 41.8288C5.28969 42.8863 4.86671 44.0283 4.69752 45.3819C3.85156 43.9437 3.17479 42.5479 2.58262 41.1098C0.763804 36.7108 0.00244141 32.1003 0.00244141 27.3206C0.00244141 20.1723 0.00244141 13.0239 0.00244141 5.87555C0.00244141 5.36798 0.0870374 5.15649 0.636911 4.945C8.29284 2.28023 16.2026 0.7998 24.3238 0.249926C31.176 -0.215352 37.986 -0.0461624 44.796 0.842095C50.8869 1.60346 56.8509 2.99929 62.6034 5.02959C62.8995 5.11419 63.0687 5.24109 63.0687 5.62177C63.0264 13.4892 63.1533 21.3989 62.9841 29.2663C62.8572 36.4147 60.404 42.8863 56.301 48.7234C52.7057 53.8838 48.1375 58.1135 43.1887 61.9204C42.8926 62.1319 42.6388 62.0896 42.3427 62.005C40.9469 61.5397 40.2278 60.4822 39.7202 59.2133C39.4242 58.5365 39.255 57.8598 39.1704 57.1407C39.2127 56.8869 39.255 56.5908 38.9589 56.4639C38.6628 56.2947 38.4513 56.5062 38.2821 56.6754C38.0706 56.8446 37.8591 57.0138 37.6899 57.183C36.3787 58.5365 35.0675 59.8478 33.7985 61.2013C33.1641 61.8781 32.6142 62.6394 32.2758 63.5277C31.4721 65.4734 31.5144 67.546 31.5567 69.5763C30.7108 69.2379 29.9917 68.688 29.188 68.2228C24.7891 65.5157 20.517 62.5971 16.6255 59.2133C15.9065 58.5788 15.2297 57.9021 14.5529 57.2676C12.6072 55.3642 11.6767 53.0801 11.8036 50.373C11.8036 50.3307 11.8036 50.2884 11.8036 50.2038C11.8036 50.0769 11.8036 49.95 11.8036 49.8654C11.8882 48.8503 11.8036 47.8351 12.0574 46.82C12.3957 45.2973 13.3686 44.1129 14.2992 42.9286C15.2297 41.7442 15.9488 40.4753 16.118 38.9949C16.2026 38.1066 16.3295 37.2184 16.4141 36.3724C16.4564 36.1186 16.4141 35.8648 16.7101 35.8225C17.0485 35.7802 17.1331 36.0763 17.2177 36.2878C17.4292 36.7954 17.683 37.2607 17.8522 37.7682C18.1906 38.8257 18.9519 39.4601 19.9671 39.7985C21.6167 40.3484 23.224 40.8983 24.8737 41.4058C25.8042 41.7019 26.1426 41.4904 26.3964 40.5599C26.5656 39.8408 26.6502 39.0795 26.8194 38.3181C26.8617 38.0643 26.904 37.6836 27.2846 37.7259C27.6653 37.7682 27.623 38.1066 27.6653 38.4027C27.7076 39.291 27.6653 40.1792 27.8345 41.0675C28.2152 43.0978 29.5687 44.5359 31.1761 45.6779C31.4298 45.8471 31.9797 45.974 32.5296 45.974ZM38.1552 49.9923C38.6628 49.9923 39.2127 49.9923 39.7202 49.9923C41.0315 49.95 42.3004 49.654 43.2733 48.6388C43.6539 48.2581 44.1192 47.8351 43.95 47.243C43.7808 46.6508 43.1464 46.4816 42.5965 46.3547C41.243 46.0163 39.8894 46.1855 38.5359 46.3547C36.9709 46.5662 35.4481 46.82 34.01 47.4968C33.6293 47.666 33.2486 47.8774 33.2486 48.385C33.2486 48.8926 33.587 49.231 34.01 49.4425C34.3061 49.5694 34.6022 49.6963 34.9406 49.7809C35.998 49.9923 37.0978 50.0346 38.1552 49.9923Z" fill="#1F417D"/>
<path d="M154.136 22.415C154.136 21.696 154.136 20.9346 154.136 20.2156C154.136 19.8349 154.221 19.6657 154.644 19.6657C155.574 19.708 156.505 19.6657 157.435 19.6657C157.774 19.6657 157.901 19.7503 157.901 20.0887C157.858 20.6808 157.901 21.3153 157.901 21.9075C157.901 22.1613 157.943 22.3727 158.239 22.415C159.677 22.7111 161.073 23.0072 162.554 22.838C164.203 22.6688 165.049 21.6537 164.922 20.0887C164.838 19.2427 164.33 18.6505 163.653 18.2275C162.638 17.6354 161.454 17.3816 160.354 17.0855C159.466 16.8317 158.62 16.5779 157.774 16.1972C155.024 14.9706 154.179 12.9403 154.348 10.2755C154.559 7.14548 156.378 5.32666 159.889 4.81908C162.68 4.3961 165.43 4.69219 168.137 5.53815C168.56 5.66505 168.729 5.83423 168.729 6.29951C168.687 7.61075 168.687 8.92199 168.729 10.1909C168.729 10.5716 168.602 10.7408 168.221 10.6985C167.291 10.6562 166.403 10.6562 165.472 10.6985C165.049 10.6985 164.965 10.5716 164.965 10.1909C165.007 9.64106 164.965 9.09119 164.965 8.54131C164.965 8.32982 164.965 8.16063 164.711 8.11833C163.442 7.73765 162.131 7.48386 160.819 7.90684C159.677 8.24523 158.916 9.09118 158.916 10.1063C158.874 11.1638 159.466 12.052 160.608 12.475C161.834 12.898 163.061 13.1518 164.288 13.5325C165.726 13.9554 167.079 14.5053 168.137 15.6474C170.929 18.6505 169.617 24.0647 165.726 25.5451C164.161 26.1373 162.511 26.3065 160.862 26.2642C158.789 26.2219 156.759 25.8835 154.771 25.2913C154.39 25.1644 154.221 24.9952 154.263 24.5722C154.179 23.8955 154.136 23.1764 154.136 22.415Z" fill="#20427D"/>
<path d="M32.5295 45.975C31.9796 46.0173 31.4298 45.8482 31.0068 45.5521C29.3995 44.41 28.0459 42.9719 27.6653 40.9416C27.4961 40.0956 27.5384 39.1651 27.4961 38.2768C27.4961 38.023 27.4961 37.6423 27.1154 37.6C26.7347 37.5577 26.7347 37.9384 26.6501 38.1922C26.5232 38.9536 26.4386 39.6726 26.2271 40.434C26.0156 41.3646 25.635 41.5761 24.7044 41.28C23.0548 40.7724 21.4052 40.2225 19.7978 39.6726C18.7827 39.3343 18.0213 38.6998 17.6829 37.6423C17.5137 37.1348 17.26 36.6272 17.0485 36.1619C16.9639 35.9504 16.8793 35.612 16.5409 35.6966C16.2448 35.7389 16.2448 36.035 16.2448 36.2465C16.1602 37.1348 16.0333 38.023 15.9487 38.869C15.7795 40.3917 15.0605 41.6607 14.1299 42.8027C13.1993 43.987 12.2688 45.1714 11.8881 46.6941C11.6766 47.7093 11.7189 48.7244 11.6343 49.7396C11.2113 49.3589 11.2536 48.809 11.2113 48.3014C10.9576 46.5249 10.7884 44.7484 10.5769 42.9296C10.3654 41.0262 10.9999 39.588 12.1842 38.2345C12.8187 37.5154 13.3262 36.7118 13.9184 35.9504C14.5529 35.1045 14.7644 34.1316 14.8067 33.0742C14.8913 31.1285 14.7221 29.1827 14.5529 27.237C14.5106 26.7718 14.5106 26.3065 14.5529 25.8835C14.5952 25.5028 14.7221 25.1221 15.1874 25.0375C15.6526 24.953 15.991 25.1644 16.1602 25.5874C16.4986 26.5603 16.837 27.5331 17.1754 28.5483C17.8521 30.4517 19.2903 31.2976 21.1937 31.5937C23.8584 31.9744 26.5232 32.3551 29.1457 32.7781C30.0339 32.905 30.7107 33.3702 31.0914 34.2162C31.7259 35.6543 32.1911 37.1348 32.6141 38.6575C32.8679 39.4611 32.5718 40.3071 32.2757 41.0685C31.8528 42.1259 31.7259 43.1834 31.7682 44.3254C31.7682 45.0022 31.9796 45.5521 32.5295 45.975Z" fill="#97BDE4"/>
<path d="M79.2265 15.5205C79.2265 13.2787 79.2265 10.9946 79.2265 8.7528C79.2265 8.32982 79.1842 8.11833 78.6766 8.16063C78.169 8.20293 77.5345 8.37212 77.2385 8.07603C76.9001 7.73765 77.1539 7.10318 77.1539 6.5533C77.1539 5.11517 77.1539 5.11518 78.5497 5.15747C81.5529 5.15747 84.556 5.11518 87.5592 5.19977C89.6318 5.24207 91.5775 5.83424 92.9733 7.48386C96.1457 11.2061 94.1154 16.6625 89.2511 17.72C87.6015 18.0583 85.9095 17.9738 84.2599 17.9738C83.71 17.9738 83.5409 18.1007 83.5832 18.6505C83.6255 19.9195 83.6255 21.2307 83.5832 22.4996C83.5832 22.8803 83.71 23.0495 84.0484 22.9649C84.0907 22.9649 84.0907 22.9649 84.133 22.9649C85.6135 23.0072 85.6135 23.0072 85.6135 24.4876C85.6135 26.0104 85.6135 26.0104 84.0907 26.0104C81.9758 26.0104 79.8186 26.0104 77.7037 26.0104C77.2385 26.0104 77.0693 25.8835 77.1116 25.4182C77.1539 24.7837 77.1539 24.107 77.1116 23.4725C77.0693 23.0072 77.2808 22.9226 77.6614 22.9226C77.9998 22.9649 78.2959 22.8803 78.6343 22.9226C79.0996 22.9649 79.1842 22.7534 79.1842 22.3305C79.2265 20.0887 79.2265 17.8046 79.2265 15.5205ZM83.5832 11.5022C83.5832 12.475 83.5832 13.4479 83.5832 14.4207C83.5832 14.7168 83.6255 14.886 84.0061 14.886C84.8944 14.8437 85.7404 14.9283 86.6286 14.886C88.6166 14.7591 89.8433 13.5748 89.9279 11.7137C90.0125 9.76795 88.955 8.41441 86.967 8.20292C85.9519 8.07603 84.9367 8.16063 83.9215 8.11833C83.5832 8.11833 83.6255 8.32982 83.6255 8.54131C83.5832 9.55646 83.5832 10.5293 83.5832 11.5022Z" fill="#20427D"/>
<path d="M118.352 12.475C120.594 9.34495 125.12 9.55644 127.192 11.3753C128.461 12.5173 129.138 13.9554 129.18 15.6051C129.265 17.8045 129.223 20.0463 129.223 22.2458C129.223 22.7534 129.307 22.9649 129.9 22.9649C131.042 22.9226 131.042 22.9649 131.042 24.107C131.042 24.6991 131.253 25.5028 130.957 25.8835C130.619 26.3065 129.773 26.0104 129.138 26.0104C127.404 26.0104 125.67 26.0104 123.936 26.0104C123.513 26.0104 123.343 25.9258 123.386 25.4605C123.428 24.7837 123.428 24.1069 123.386 23.4302C123.343 23.0072 123.513 22.9226 123.893 22.9226C125.078 22.9226 125.078 22.8803 125.078 21.7383C125.078 20.1309 125.078 18.5236 125.078 16.9163C125.078 13.9554 122.709 13.2364 120.763 13.7862C119.663 14.0823 118.902 15.0552 118.817 16.2818C118.691 18.3544 118.775 20.4693 118.733 22.5419C118.733 22.8803 118.86 22.9226 119.156 22.9649C119.579 22.9649 120.129 22.7534 120.425 23.0495C120.721 23.3456 120.509 23.9378 120.509 24.3607C120.509 24.8683 120.721 25.5451 120.425 25.8835C120.086 26.2219 119.41 26.0104 118.86 26.0104C117.041 26.0104 115.222 26.0104 113.403 26.0104C113.023 26.0104 112.853 25.9258 112.853 25.5028C112.896 24.826 112.896 24.1069 112.853 23.4302C112.853 23.0495 112.98 22.9649 113.361 22.9649C114.588 22.9226 114.588 22.9226 114.588 21.7383C114.588 19.1581 114.588 16.6202 114.588 14.04C114.588 13.5748 114.461 13.4479 113.996 13.4479C112.557 13.4479 112.557 13.4479 112.557 12.0097C112.557 10.4024 112.557 10.4024 114.165 10.4024C115.391 10.4024 116.618 10.4024 117.802 10.4024C118.183 10.4024 118.31 10.487 118.31 10.8677C118.225 11.333 118.31 11.8405 118.352 12.475Z" fill="#21427D"/>
<path d="M138.698 12.475C140.347 10.3601 142.42 9.81022 144.788 10.1486C147.538 10.5716 149.441 12.7711 149.526 15.605C149.61 17.8045 149.568 20.0463 149.568 22.2458C149.568 22.7534 149.695 22.9649 150.245 22.9649C151.387 22.9226 151.387 22.9649 151.387 24.1069C151.387 24.6991 151.598 25.5028 151.26 25.8835C150.922 26.2641 150.076 26.0103 149.441 26.0103C147.707 26.0103 145.973 26.0103 144.239 26.0103C143.816 26.0103 143.646 25.9258 143.689 25.4605C143.731 24.7837 143.731 24.1069 143.689 23.4302C143.646 23.0072 143.858 22.9226 144.239 22.9226C145.423 22.9226 145.423 22.8803 145.423 21.7382C145.423 20.1309 145.423 18.5659 145.423 16.9586C145.423 14.4207 143.646 13.0672 141.193 13.7439C139.967 14.0823 139.29 14.886 139.163 16.1126C138.951 18.2698 139.121 20.4693 139.078 22.6265C139.078 22.9649 139.29 22.9226 139.501 22.9649C139.924 23.0072 140.474 22.7534 140.77 23.0495C141.066 23.3456 140.855 23.9377 140.855 24.3607C140.855 25.968 140.855 25.968 139.247 25.968C137.429 25.968 135.61 25.968 133.791 25.968C133.326 25.968 133.157 25.8412 133.199 25.3759C133.241 24.7414 133.241 24.0646 133.199 23.4302C133.199 23.0495 133.283 22.8803 133.706 22.8803C134.891 22.8803 134.891 22.838 134.891 21.6537C134.891 19.0735 134.891 16.5356 134.891 13.9554C134.891 13.4901 134.764 13.3633 134.299 13.3633C132.86 13.3633 132.86 13.3633 132.86 11.9251C132.86 11.4175 132.607 10.7408 132.987 10.4447C133.326 10.1486 133.96 10.3601 134.51 10.3601C135.694 10.3601 136.921 10.3601 138.105 10.3601C138.528 10.3601 138.655 10.487 138.655 10.91C138.571 11.3753 138.613 11.8405 138.698 12.475Z" fill="#21427D"/>
<path d="M193.473 23.8955C191.316 26.3065 188.355 27.0255 185.733 25.7566C184.252 25.0375 183.449 23.8955 183.279 22.2459C183.11 20.4694 183.702 19.0312 185.225 18.0584C186.494 17.2547 187.932 16.9586 189.413 16.8317C190.47 16.7471 191.528 16.7471 192.585 16.7471C192.923 16.7471 193.135 16.6625 193.093 16.2819C193.05 15.9012 193.05 15.5628 193.008 15.1821C192.839 14.0401 192.204 13.3633 190.978 13.1095C189.878 12.898 188.778 13.0249 187.721 13.3633C187.467 13.4479 187.34 13.5748 187.382 13.8286C187.382 13.8709 187.382 13.9132 187.382 13.9555C187.34 14.463 187.594 15.1398 187.298 15.4782C186.959 15.8589 186.283 15.5628 185.733 15.6051C185.31 15.6474 184.844 15.6051 184.421 15.6051C184.083 15.6051 183.956 15.4782 183.999 15.1398C183.999 14.0824 183.999 13.0249 183.999 11.9252C183.999 11.6714 184.083 11.5445 184.295 11.4176C187.213 9.97946 190.216 9.4719 193.389 10.487C195.842 11.2907 197.026 13.1518 197.069 16.0704C197.069 18.1007 197.069 20.1733 197.069 22.2036C197.069 22.7112 197.195 22.8803 197.703 22.838C198.676 22.7958 198.676 22.8381 198.676 23.8109C198.676 24.3608 198.676 24.9107 198.676 25.4605C198.676 25.7989 198.549 25.8835 198.211 25.8835C196.815 25.8835 195.419 25.8835 194.023 25.8835C193.642 25.8835 193.558 25.7566 193.558 25.3759C193.6 24.9952 193.516 24.53 193.473 23.8955ZM189.709 23.3033C191.57 23.3033 193.219 21.4845 193.05 19.6657C193.05 19.4965 193.008 19.3696 192.796 19.3696C191.358 19.4119 189.878 19.285 188.524 19.8349C187.34 20.3425 187.044 21.7383 187.932 22.6689C188.44 23.1764 189.032 23.3033 189.709 23.3033Z" fill="#20427D"/>
<path d="M105.24 19.1159C103.59 19.1159 101.983 19.1159 100.333 19.1159C99.8256 19.1159 99.7411 19.285 99.8256 19.708C100.079 21.3999 101.475 22.6689 103.421 23.0073C105.324 23.3033 107.143 23.0496 108.92 22.3728C109.512 22.1613 109.596 22.2882 109.596 22.8381C109.554 23.5148 109.596 24.2339 109.596 24.9107C109.596 25.1645 109.596 25.376 109.3 25.4605C106.128 26.4757 102.956 26.7718 99.8256 25.5451C96.9917 24.4454 95.6381 22.119 95.3844 19.2004C95.1729 17.2124 95.469 15.309 96.4841 13.5325C98.0914 10.8254 100.629 9.8526 103.675 9.97949C108.201 10.191 110.189 13.3633 110.612 17.2547C110.696 17.8046 110.992 18.5237 110.654 18.9044C110.316 19.285 109.554 19.0313 108.962 19.0313C107.651 19.1581 106.424 19.1159 105.24 19.1159ZM102.913 16.2396C103.844 16.2396 104.732 16.2396 105.663 16.2396C106.043 16.2396 106.128 16.1127 106.086 15.7743C105.917 13.9978 104.69 12.8557 102.956 12.898C101.264 12.898 99.9525 14.1247 99.8256 15.8589C99.7834 16.155 99.8679 16.2819 100.206 16.2819C101.095 16.2396 101.983 16.2396 102.913 16.2396Z" fill="#20427D"/>
<path d="M220.798 19.1157C219.148 19.1157 217.541 19.1157 215.891 19.1157C215.468 19.1157 215.384 19.2426 215.426 19.6233C215.638 21.3152 217.033 22.6688 218.979 23.0071C220.84 23.3032 222.617 23.0495 224.351 22.4573C225.112 22.2035 225.112 22.1612 225.112 23.0071C225.112 23.6416 225.112 24.3184 225.112 24.9529C225.112 25.2066 225.112 25.4181 224.816 25.5027C221.644 26.5179 218.429 26.814 215.257 25.5873C212.592 24.5299 211.281 22.3727 210.942 19.6233C210.646 17.3815 210.942 15.2243 212.211 13.3209C213.861 10.783 216.357 9.93708 219.233 10.064C223.378 10.2332 225.451 13.0248 226.043 16.6202C226.17 17.2969 226.17 17.9737 226.254 18.6082C226.297 18.9888 226.17 19.1157 225.747 19.1157C224.097 19.1157 222.448 19.1157 220.798 19.1157ZM218.514 16.2395C219.444 16.2395 220.375 16.2395 221.306 16.2395C221.559 16.2395 221.813 16.2395 221.728 15.8588C221.602 15.1397 221.475 14.463 220.967 13.8708C220.121 12.9402 218.641 12.6018 217.372 13.0671C216.272 13.4478 215.468 14.6745 215.426 15.9011C215.384 16.2818 215.638 16.1972 215.849 16.1972C216.737 16.2395 217.626 16.2395 218.514 16.2395Z" fill="#20427D"/>
<path d="M173.255 18.0161C173.255 16.6626 173.255 15.309 173.255 13.9555C173.255 13.5325 173.17 13.321 172.705 13.4056C172.705 13.4056 172.663 13.4056 172.62 13.4056C172.113 13.3633 171.436 13.6171 171.182 13.2787C170.929 12.9826 171.098 12.3059 171.098 11.8406C171.098 10.3601 171.098 10.3601 172.578 10.3601C173.086 10.3601 173.255 10.2333 173.213 9.72568C173.17 9.00661 173.213 8.24526 173.213 7.52619C173.213 7.14551 173.34 7.06091 173.72 7.06091C174.82 7.06091 175.877 7.06091 176.977 7.06091C177.316 7.06091 177.442 7.14551 177.4 7.48389C177.358 8.20296 177.442 8.96431 177.4 9.68338C177.358 10.2333 177.569 10.3601 178.077 10.3601C179.05 10.3179 180.023 10.3601 180.995 10.3178C181.461 10.3178 181.588 10.4448 181.545 10.91C181.503 11.5445 181.503 12.179 181.545 12.8134C181.588 13.2364 181.461 13.4056 180.995 13.4056C179.938 13.3633 178.923 13.4056 177.865 13.4056C177.612 13.4056 177.358 13.3633 177.358 13.744C177.4 16.1973 177.231 18.6506 177.442 21.1038C177.569 22.4997 178.246 23.0918 179.642 23.0918C180.192 23.0918 180.742 23.0072 181.249 22.9227C181.63 22.8381 181.715 22.9649 181.672 23.3033C181.672 24.0224 181.672 24.7415 181.672 25.4605C181.672 25.6297 181.715 25.7989 181.461 25.8412C179.515 26.2642 177.569 26.6449 175.666 25.7989C173.932 25.0375 173.213 23.6417 173.17 21.8229C173.255 20.5963 173.255 19.285 173.255 18.0161Z" fill="#20427D"/>
<path d="M201.425 18.0584C201.425 16.7049 201.425 15.3513 201.425 14.0401C201.425 13.6171 201.341 13.4056 200.876 13.4479C200.368 13.4902 199.734 13.6594 199.437 13.3633C199.141 13.0672 199.353 12.4328 199.353 11.9252C199.353 10.4448 199.353 10.4025 200.876 10.4448C201.299 10.4448 201.468 10.3602 201.468 9.89488C201.425 9.13351 201.468 8.32985 201.468 7.56849C201.468 7.2724 201.552 7.14551 201.848 7.14551C202.99 7.14551 204.09 7.14551 205.232 7.14551C205.613 7.14551 205.655 7.2724 205.655 7.61079C205.655 8.37215 205.655 9.17581 205.655 9.93718C205.655 10.3179 205.782 10.4448 206.163 10.4448C207.22 10.4025 208.278 10.4448 209.335 10.4448C209.716 10.4448 209.843 10.5294 209.843 10.91C209.8 11.6291 209.8 12.3482 209.843 13.0672C209.843 13.4056 209.716 13.5325 209.377 13.4902C208.278 13.4902 207.22 13.4902 206.121 13.4902C205.867 13.4902 205.655 13.4479 205.655 13.8286C205.698 16.2819 205.528 18.7775 205.74 21.2307C205.867 22.542 206.501 23.0919 207.812 23.1765C208.362 23.2188 208.955 23.1341 209.504 23.0073C209.927 22.9227 209.97 23.0495 209.97 23.4302C209.97 24.107 209.97 24.8261 209.97 25.5028C209.97 25.7143 209.97 25.8835 209.674 25.9681C208.024 26.3488 206.374 26.6026 204.725 26.1796C202.779 25.672 201.552 24.2339 201.51 22.2036C201.425 20.8078 201.425 19.4119 201.425 18.0584Z" fill="#20417D"/>
<path d="M139.501 68.266C141.489 65.4321 145.127 65.8128 146.734 67.3778C147.58 68.1814 148.088 69.1543 148.384 70.2963C148.764 71.946 148.68 73.5533 148.13 75.1606C146.692 79.1789 141.404 79.9403 139.247 76.5141C139.078 76.9794 139.12 77.487 139.12 77.91C139.12 78.2484 139.036 78.4175 138.655 78.4175C137.259 78.4598 137.259 78.4598 137.259 77.1063C137.259 71.9037 137.302 66.701 137.259 61.5406C137.259 60.9485 137.428 60.8216 137.978 60.8639C139.416 60.9062 139.416 60.8639 139.416 62.302C139.416 64.2477 139.416 66.1511 139.416 68.0968C139.416 68.0968 139.459 68.1391 139.501 68.266ZM139.459 72.4958C139.459 72.9611 139.416 73.4264 139.459 73.8494C139.586 75.3298 140.601 76.5141 142.039 76.8525C143.519 77.1909 145 76.5987 145.719 75.2875C146.692 73.4687 146.734 71.5653 145.803 69.7042C145.169 68.4352 144.112 67.843 142.673 67.9276C141.278 68.0122 140.093 68.9851 139.67 70.254C139.374 70.9731 139.416 71.7345 139.459 72.4958Z" fill="#22437E"/>
<path d="M176.723 61.4561C177.908 61.4561 178.923 61.6253 179.896 62.006C180.319 62.1752 180.488 62.3444 180.276 62.8097C180.107 63.1903 180.065 63.6979 179.811 63.9094C179.557 64.0786 179.134 63.6979 178.754 63.571C177.612 63.2327 176.512 63.1057 175.37 63.4441C174.397 63.7402 173.763 64.3747 173.593 65.3898C173.424 66.405 173.805 67.2086 174.651 67.8431C175.412 68.393 176.258 68.7314 177.104 69.0698C177.95 69.4082 178.754 69.7888 179.431 70.3387C182.011 72.369 181.63 76.4296 178.711 77.91C176.3 79.0944 173.847 78.8406 171.394 77.8254C171.14 77.6985 171.013 77.5717 171.14 77.2756C171.309 76.8526 171.309 76.2181 171.605 75.9643C171.901 75.7105 172.367 76.2604 172.79 76.3873C174.016 76.8103 175.285 77.0641 176.554 76.768C177.696 76.5142 178.542 75.922 178.838 74.7377C179.134 73.4688 178.711 72.4536 177.654 71.6922C177.02 71.2693 176.343 70.9732 175.624 70.6771C174.905 70.4233 174.228 70.0849 173.593 69.7042C171.986 68.6891 171.182 67.2509 171.478 65.3052C171.775 63.4441 173.001 62.3867 174.693 61.7945C175.37 61.5407 176.089 61.4138 176.723 61.4561Z" fill="#22437E"/>
<path d="M110.908 70.2118C110.908 66.9125 112.092 64.2054 115.053 62.5558C117.591 61.16 120.298 61.16 123.005 61.9637C123.386 62.0906 123.513 62.2597 123.386 62.6827C123.216 63.0634 123.259 63.6133 122.963 63.8248C122.667 64.0363 122.244 63.6556 121.821 63.571C119.071 62.9788 116.491 63.148 114.588 65.4744C112.98 67.4201 112.853 69.7888 113.361 72.1575C113.911 74.6953 115.518 76.2181 118.056 76.7256C119.537 77.0217 121.059 76.8948 122.497 76.345C123.005 76.1758 123.132 76.2604 123.216 76.7256C123.513 77.9523 123.555 77.9946 122.328 78.2484C120.382 78.7137 118.479 78.7983 116.533 78.2907C113.319 77.4447 111.162 74.7376 110.95 71.2269C110.908 70.8885 110.908 70.5501 110.908 70.2118Z" fill="#22437E"/>
<path d="M95.7229 72.3267C95.7229 75.3298 94.1578 77.6562 91.5354 78.4176C87.4748 79.6019 83.964 76.768 84.0486 72.4113C84.0909 69.4504 85.4445 67.3355 87.8977 66.4896C91.5354 65.2629 95.3845 67.2086 95.6806 71.6499C95.6806 71.8614 95.7229 72.0729 95.7229 72.3267ZM86.2481 72.7497C86.2058 73.511 86.4596 74.5262 87.0941 75.4567C88.4053 77.4024 90.9432 77.5293 92.4236 75.7105C93.8618 73.9763 93.8618 70.6348 92.3813 68.9005C91.1124 67.4201 88.8283 67.3355 87.4748 68.7313C86.5442 69.7888 86.2481 71.0577 86.2481 72.7497Z" fill="#22447E"/>
<path d="M155.49 66.1511C158.874 66.1511 160.777 68.0968 160.989 71.1423C161.073 72.7919 161.073 72.7919 159.466 72.7919C157.351 72.7919 155.194 72.7919 153.079 72.7919C152.656 72.7919 152.529 72.8342 152.571 73.3418C152.867 75.7105 154.517 77.1063 156.886 76.9794C157.816 76.9371 158.705 76.8102 159.55 76.4718C159.635 76.4295 159.762 76.3449 159.804 76.3872C160.185 76.6833 160.058 77.1486 160.227 77.5293C160.312 77.7408 160.312 77.8677 160.058 77.9946C157.816 78.7559 155.574 79.0097 153.333 77.9523C151.345 76.9794 150.203 74.6107 150.456 72.0728C150.541 71.0577 150.753 70.0848 151.218 69.1966C152.233 67.2086 153.84 66.1934 155.49 66.1511ZM155.701 71.2692C156.632 71.2692 157.562 71.2692 158.493 71.2692C158.662 71.2692 158.874 71.3115 158.874 71.0154C159.001 69.7887 158.07 68.266 156.886 67.8853C154.855 67.2509 152.698 68.7736 152.571 70.9308C152.571 71.2692 152.698 71.2692 152.952 71.2692C153.883 71.2692 154.813 71.2692 155.701 71.2692Z" fill="#23457F"/>
<path d="M246.6 76.345C246.642 76.3873 246.642 76.3873 246.642 76.4296C247.065 78.1638 247.319 77.8677 245.584 78.333C244.231 78.7137 242.877 78.756 241.524 78.4599C239.282 77.9946 237.844 76.5988 237.379 74.3993C236.829 71.946 237.167 69.6196 238.944 67.7162C240.424 66.1512 242.37 65.8128 244.4 66.405C246.388 66.9971 247.234 68.5622 247.572 70.4656C247.699 71.0155 247.699 71.523 247.699 72.0729C247.699 72.5805 247.572 72.8343 246.98 72.792C244.612 72.7497 242.201 72.792 239.832 72.7497C239.282 72.7497 239.24 72.9189 239.282 73.3841C239.578 75.7105 241.27 77.0218 243.723 76.8949C244.696 76.8949 245.669 76.7257 246.6 76.345ZM242.37 71.2692C243.343 71.2692 244.273 71.2692 245.246 71.2692C245.415 71.2692 245.627 71.3115 245.627 71.0155C245.754 69.6619 244.738 68.1815 243.427 67.8431C241.439 67.3355 239.197 69.0697 239.282 71.0578C239.282 71.3538 239.494 71.2692 239.62 71.2692C240.551 71.2692 241.439 71.2692 242.37 71.2692Z" fill="#23457F"/>
<path d="M206.374 72.8342C205.148 72.8342 203.921 72.8765 202.737 72.8342C202.271 72.8342 202.187 73.0034 202.271 73.3841C202.567 75.7951 204.217 77.1486 206.713 76.9794C207.601 76.9371 208.489 76.8102 209.335 76.4718C209.589 76.3449 209.716 76.3872 209.758 76.6833C209.758 76.7256 209.758 76.7256 209.758 76.7256C210.096 77.91 210.054 77.9523 208.87 78.2907C207.516 78.629 206.163 78.7559 204.809 78.5444C202.483 78.1638 200.875 76.6833 200.368 74.3569C199.818 71.9037 200.199 69.5773 201.975 67.6739C203.456 66.1511 205.317 65.8127 207.305 66.3626C209.25 66.9125 210.096 68.4352 210.519 70.254C210.646 70.8885 210.646 71.5653 210.646 72.1997C210.646 72.6227 210.519 72.7919 210.054 72.7919C208.827 72.7919 207.601 72.8342 206.374 72.8342ZM205.401 71.2269C206.332 71.2269 207.22 71.2269 208.151 71.2269C208.362 71.2269 208.574 71.3115 208.616 70.9308C208.743 69.6196 207.728 68.1391 206.459 67.7585C204.513 67.2086 202.44 68.8159 202.314 70.8885C202.271 71.2692 202.525 71.1846 202.694 71.1846C203.583 71.2692 204.513 71.2269 205.401 71.2269Z" fill="#23457F"/>
<path d="M155.278 48.0899C154.052 48.0899 152.867 48.0899 151.641 48.0899C151.175 48.0899 151.091 48.2168 151.175 48.6398C151.514 50.9662 152.91 52.1928 155.236 52.2351C156.209 52.2351 157.182 52.1505 158.112 51.7698C158.493 51.6006 158.578 51.7698 158.662 52.1082C158.958 53.2503 158.958 53.2502 157.816 53.5463C156.463 53.927 155.067 54.0539 153.713 53.8001C151.387 53.4194 149.822 51.939 149.272 49.6126C148.849 47.8361 149.018 46.1019 149.822 44.4946C150.922 42.1682 153.248 41.0684 155.828 41.5337C157.901 41.9144 159.424 43.8178 159.593 46.3134C159.72 48.0476 159.72 48.0476 157.985 48.0476C157.055 48.0899 156.167 48.0899 155.278 48.0899ZM154.052 46.5249C154.982 46.5249 155.871 46.5249 156.801 46.5249C156.97 46.5249 157.224 46.6518 157.266 46.2288C157.351 44.9176 156.463 43.4794 155.236 43.141C153.121 42.5489 151.429 43.8601 150.964 46.1865C150.879 46.5249 151.133 46.5249 151.345 46.5249C152.233 46.5249 153.163 46.5249 154.052 46.5249Z" fill="#22447E"/>
<path d="M215.384 68.3507C216.399 66.8703 217.71 66.1089 219.402 66.1512C221.559 66.1935 223.166 67.6739 223.463 69.958C223.716 71.7768 223.547 73.6379 223.589 75.4991C223.589 76.345 223.589 77.1487 223.589 77.9946C223.589 78.2907 223.505 78.4599 223.209 78.4176C223.166 78.4176 223.166 78.4176 223.124 78.4176C221.39 78.5022 221.39 78.5022 221.39 76.768C221.39 74.9069 221.39 73.0458 221.348 71.1847C221.348 70.9309 221.305 70.7194 221.263 70.4656C220.925 68.7314 219.994 67.9277 218.429 68.0123C216.949 68.0969 215.637 69.3236 215.553 70.8463C215.468 71.946 215.511 73.0035 215.511 74.1032C215.511 75.3722 215.511 76.6834 215.511 77.9524C215.511 78.333 215.426 78.4176 215.045 78.4176C213.353 78.4599 213.353 78.4599 213.311 76.768C213.269 73.5111 213.396 70.2118 213.226 66.9549C213.184 66.5319 213.311 66.405 213.734 66.405C215.088 66.405 215.045 66.405 215.214 67.7162C215.299 67.8854 215.341 68.0546 215.384 68.3507Z" fill="#254680"/>
<path d="M85.2329 43.6909C85.9942 42.5066 86.9248 41.7875 88.1937 41.5337C91.07 40.9838 93.3118 42.8027 93.4387 45.8058C93.5233 48.2591 93.481 50.7547 93.481 53.2502C93.481 53.5463 93.3964 53.6732 93.1003 53.6732C91.3238 53.7578 91.3238 53.7578 91.3238 51.9813C91.3238 49.9933 91.3661 48.0476 91.2815 46.0596C91.1969 44.2831 90.1394 43.2256 88.5744 43.2256C86.9671 43.2256 85.5713 44.5369 85.529 46.1865C85.4867 48.4706 85.4867 50.7547 85.529 53.0388C85.529 53.5886 85.3598 53.6732 84.8945 53.6732C83.3295 53.6309 83.3295 53.6732 83.3295 52.0659C83.2872 48.7244 83.4141 45.4251 83.2449 42.0836C83.2449 41.7452 83.3295 41.6606 83.6679 41.6183C85.1906 41.576 85.1906 41.576 85.2752 43.0987C85.1906 43.2679 85.2329 43.4371 85.2329 43.6909Z" fill="#23457F"/>
<path d="M136.54 51.8544C135.483 53.3348 134.129 54.0539 132.353 53.927C130.872 53.8424 129.773 53.1234 129.138 51.7698C128.758 50.9662 128.588 50.1202 128.588 49.2319C128.588 46.9056 128.588 44.5369 128.588 42.2105C128.588 41.7875 128.715 41.6606 129.138 41.6606C130.746 41.6606 130.746 41.6606 130.746 43.2679C130.746 45.2136 130.788 47.117 130.788 49.0628C130.788 49.2742 130.83 49.4857 130.872 49.6972C131.211 51.3891 132.057 52.1505 133.58 52.0659C135.06 52.0236 136.329 50.8393 136.413 49.3588C136.498 48.2591 136.456 47.1594 136.456 46.0173C136.456 44.7061 136.456 43.3948 136.456 42.1259C136.456 41.7875 136.54 41.6183 136.921 41.6183C138.655 41.576 138.613 41.576 138.655 43.2679C138.698 46.5672 138.571 49.8664 138.74 53.1657C138.74 53.4617 138.698 53.6309 138.317 53.6309C136.836 53.6732 136.836 53.6732 136.71 52.2774C136.667 52.1505 136.71 52.0236 136.54 51.8544Z" fill="#254680"/>
<path d="M129.857 75.7528C130.83 72.8342 131.845 69.9156 132.776 66.9971C132.903 66.5741 133.114 66.4049 133.537 66.4472C134.087 66.4895 134.595 66.4472 135.271 66.4472C134.806 67.7161 134.341 68.9005 133.875 70.0848C132.607 73.2995 131.549 76.5987 129.984 79.6442C129.096 81.3361 127.996 82.7742 126.135 83.5356C125.247 83.9163 125.247 83.9163 124.993 82.9434V82.9011C124.612 82.2243 124.866 81.9283 125.543 81.5899C126.939 80.9554 127.869 79.8134 128.504 78.4175C128.715 77.9523 128.546 77.5716 128.377 77.1909C127.023 73.8071 125.67 70.3809 124.274 66.9971C124.062 66.4895 124.147 66.4049 124.697 66.4049C126.431 66.4049 126.431 66.4049 127.023 68.0122C127.954 70.5078 128.969 73.0034 129.73 75.5413C129.73 75.6259 129.688 75.7105 129.857 75.7528Z" fill="#22447E"/>
<path d="M31.3876 69.4504C31.3453 67.4201 31.3453 65.3475 32.1067 63.4018C32.4451 62.5135 32.995 61.7521 33.6294 61.0754C34.8984 59.7218 36.2096 58.4106 37.5209 57.0571C37.69 56.8879 37.9015 56.7187 38.113 56.5495C38.3245 56.3803 38.536 56.2111 38.7898 56.338C39.0859 56.5072 39.0436 56.761 39.0013 57.0148C38.4091 59.4258 38.113 61.879 38.7052 64.3323C38.7898 64.6707 38.7052 64.8822 38.4514 65.0514C36.2519 66.5318 34.0524 67.8854 31.8106 69.2812C31.6837 69.4081 31.5568 69.4081 31.3876 69.4504Z" fill="#97BDE4"/>
<path d="M78.2114 73.2149C78.2114 71.7345 78.2114 70.2118 78.2114 68.7313C78.2114 68.266 78.1268 68.0546 77.5769 68.0546C76.5195 68.0969 76.308 67.7162 76.5195 66.6587C76.6041 66.3626 76.7733 66.4049 76.9425 66.4049C77.3232 66.3626 77.7884 66.5741 78.0845 66.3203C78.3383 66.0666 78.1691 65.559 78.2114 65.1783C78.3383 63.6979 78.6767 62.302 79.9879 61.3292C81.2146 60.4409 82.5681 60.3563 84.0063 60.7793C84.3023 60.8639 84.3446 60.9908 84.3023 61.2446C84.3023 61.3715 84.26 61.4561 84.26 61.583C84.0908 62.4712 84.0908 62.4712 83.2026 62.3866C81.553 62.2174 80.707 62.9365 80.4532 64.7553C80.1994 66.4472 80.1994 66.4472 81.8914 66.4472C81.9759 66.4472 82.0182 66.4472 82.1028 66.4472C83.3718 66.4472 83.3295 66.4472 83.2872 67.7162C83.2872 68.0969 83.118 68.1392 82.8219 68.1392C82.1874 68.1392 81.553 68.1815 80.9185 68.1392C80.4532 68.0969 80.3686 68.266 80.3686 68.689C80.3686 71.6922 80.3686 74.7376 80.4109 77.7408C80.4109 78.2907 80.284 78.5022 79.6918 78.4599C78.2114 78.4176 78.2114 78.4599 78.2114 76.9794C78.2114 75.7105 78.2114 74.4838 78.2114 73.2149Z" fill="#254680"/>
<path d="M107.27 47.4132C107.27 46.0597 107.27 44.9176 107.27 43.8179C107.27 43.4795 107.186 43.3526 106.847 43.3949C106.636 43.4372 106.424 43.3526 106.213 43.3949C105.578 43.5218 105.409 43.2257 105.451 42.6335C105.494 41.7453 105.451 41.7453 106.424 41.7453C107.313 41.7453 107.313 41.7453 107.313 40.857C107.313 40.7301 107.313 40.6032 107.313 40.4763C107.313 38.7844 107.439 38.6575 109.174 38.4037C109.512 38.3614 109.47 38.5306 109.47 38.7421C109.47 39.5458 109.512 40.3494 109.47 41.1531C109.427 41.6184 109.554 41.8299 110.062 41.7876C110.739 41.7453 111.458 41.7876 112.135 41.7876C112.431 41.7876 112.515 41.8722 112.558 42.2106C112.642 43.4795 112.642 43.4795 111.415 43.4795C110.908 43.4795 110.4 43.4795 109.935 43.4795C109.597 43.4795 109.512 43.6064 109.512 43.9448C109.512 46.0597 109.47 48.2169 109.512 50.3318C109.554 51.8968 110.189 52.4044 111.754 52.2352C112.346 52.1506 112.431 52.3198 112.431 52.8273C112.431 53.8425 112.473 53.8848 111.415 54.0117C110.992 54.054 110.612 54.0963 110.189 54.054C108.708 53.9694 107.736 53.0388 107.482 51.5584C107.186 49.9934 107.313 48.5975 107.27 47.4132Z" fill="#254680"/>
<path d="M99.7411 53.927C98.5144 53.927 97.4993 53.7155 96.5687 53.2925C96.3149 53.1656 96.1458 53.081 96.2726 52.7426C96.4418 52.362 96.4418 51.8121 96.6956 51.6006C96.9917 51.3891 97.3724 51.8544 97.7531 51.9813C98.599 52.2351 99.445 52.4042 100.291 52.2351C101.137 52.0659 101.687 51.6006 101.814 50.8392C101.941 50.0356 101.644 49.4434 100.968 49.0204C100.545 48.7243 100.037 48.5551 99.5719 48.3437C98.9797 48.1322 98.4298 47.8784 97.88 47.4977C95.8497 46.0596 95.9766 43.2679 98.1761 42.0835C99.8257 41.1953 101.518 41.3222 103.167 42.0412C103.421 42.1681 103.506 42.295 103.379 42.5488C103.252 42.9295 103.21 43.3948 102.956 43.6063C102.66 43.8601 102.321 43.4371 101.983 43.3102C101.222 43.0987 100.46 42.9718 99.6988 43.1833C99.0643 43.3525 98.6413 43.7755 98.5567 44.4522C98.4721 45.1713 98.7259 45.6789 99.3604 46.0173C100.037 46.4402 100.799 46.6517 101.475 46.9901C102.533 47.4977 103.463 48.0899 103.802 49.2742C104.436 51.3468 103.167 53.2925 100.883 53.7155C100.46 53.8847 99.9949 53.8847 99.7411 53.927Z" fill="#23457F"/>
<path d="M232.641 66.1934C233.572 66.1934 234.418 66.3626 235.264 66.6164C235.602 66.7433 235.729 66.9124 235.602 67.2508C235.602 67.2508 235.602 67.2931 235.56 67.2931C235.264 68.3929 235.264 68.3929 234.206 68.0968C231.88 67.42 229.723 68.3506 228.835 70.3809C227.904 72.5804 228.581 75.2451 230.442 76.3449C231.838 77.1486 233.276 77.064 234.714 76.5141C235.179 76.3449 235.306 76.4295 235.433 76.8948C235.644 78.0368 235.687 78.0368 234.545 78.3329C232.345 78.8828 230.146 78.8828 228.327 77.3178C226.212 75.5412 225.916 73.1302 226.55 70.5924C227.185 68.1814 228.877 66.7856 231.288 66.3203C231.711 66.2357 232.218 66.1511 232.641 66.1934Z" fill="#23457F"/>
<path d="M183.28 72.5804C183.28 67.124 188.355 65.1783 192.331 66.6587C192.627 66.7433 192.754 66.8702 192.585 67.1663C192.585 67.2086 192.543 67.2509 192.543 67.2932C192.247 68.3929 192.247 68.3929 191.189 68.0969C189.032 67.4624 186.917 68.2661 185.987 70.0849C184.971 72.0729 185.437 74.8222 187.002 76.0489C188.44 77.1486 190.09 77.1063 191.697 76.5142C192.204 76.345 192.289 76.4296 192.416 76.9371C192.627 78.0792 192.67 78.0792 191.528 78.3753C190.132 78.756 188.736 78.7982 187.34 78.4176C184.802 77.6562 183.28 75.499 183.28 72.5804Z" fill="#23457F"/>
<path d="M144.831 38.2767C144.831 39.2919 144.831 40.2647 144.831 41.1953C144.831 41.576 144.915 41.6606 145.296 41.6606C145.973 41.6183 146.692 41.6606 147.369 41.6606C147.749 41.6606 147.961 41.7452 147.961 42.1682C147.961 43.3102 147.961 43.3102 146.819 43.3525C146.184 43.3525 145.338 43.0564 144.958 43.4794C144.662 43.8178 144.873 44.6637 144.873 45.2982C144.873 46.7786 144.873 48.2591 144.873 49.7395C144.873 49.9087 144.873 50.0779 144.873 50.2471C145 51.6852 145.55 52.1505 146.946 52.1082C147.199 52.1082 147.58 51.8121 147.707 52.1505C147.834 52.5735 147.876 53.081 147.792 53.5463C147.792 53.6732 147.622 53.6732 147.538 53.6732C146.565 53.927 145.634 54.0116 144.662 53.6732C143.308 53.2079 142.843 52.1082 142.8 50.8392C142.716 48.5974 142.758 46.3134 142.758 44.0716C142.758 43.4794 142.589 43.3102 141.997 43.3525C140.77 43.3948 140.686 43.2256 140.855 41.999C140.897 41.7875 140.939 41.6606 141.151 41.7029C141.235 41.7029 141.278 41.7029 141.362 41.7029C142.716 41.6606 142.716 41.6606 142.716 40.307C142.716 38.8266 142.716 38.8266 144.112 38.4882C144.323 38.4036 144.535 38.3613 144.831 38.2767Z" fill="#22437E"/>
<path d="M123.174 38.3613C123.174 39.3342 123.174 40.2647 123.174 41.2376C123.174 41.6183 123.259 41.7452 123.639 41.7452C124.316 41.7029 125.035 41.7452 125.712 41.7452C126.135 41.7029 126.304 41.8298 126.304 42.295C126.304 43.3948 126.304 43.3948 125.162 43.3948C124.612 43.3948 124.062 43.3948 123.512 43.3948C123.259 43.3948 123.132 43.4371 123.132 43.7332C123.174 45.8904 123.132 48.0899 123.216 50.2471C123.259 51.8544 123.851 52.2774 125.416 52.1082C126.008 52.0236 126.093 52.2351 126.135 52.7426C126.135 53.7155 126.177 53.7155 125.204 53.8847C124.612 53.9693 123.978 54.0116 123.386 53.8847C121.905 53.5463 121.101 52.5312 121.059 50.6277C121.017 48.4282 121.017 46.1865 121.059 43.987C121.059 43.4794 120.932 43.3102 120.467 43.3948C120.34 43.4371 120.213 43.3948 120.086 43.3948C119.24 43.3948 119.283 43.3948 119.198 42.5488C119.156 41.8721 119.367 41.6606 120.044 41.7029C121.059 41.7452 121.059 41.7029 121.059 40.6877C121.101 38.6574 121.101 38.6574 123.174 38.3613Z" fill="#21427D"/>
<path d="M33.5448 27.4062C33.4179 27.4485 33.2487 27.5331 33.1218 27.5331C32.9949 27.5754 32.868 27.6177 32.7834 27.4485C32.7411 27.3216 32.8257 27.237 32.9103 27.1524C33.4602 26.5602 33.9678 25.9681 33.4602 25.0798C32.9103 24.0647 31.9798 23.6417 30.88 23.6417C29.738 23.684 28.8497 24.2339 28.2153 25.1644C27.9192 25.5451 27.9192 25.8835 28.2153 26.3065C28.6805 27.0255 29.315 27.4062 30.0764 27.66C30.2456 27.7023 30.5416 27.7023 30.4993 27.9561C30.4993 28.2522 30.2033 28.2522 29.9918 28.2522C28.892 28.2945 27.8346 28.1253 27.0309 27.3639C26.6925 27.0678 26.3964 26.9409 26.0158 27.1101C25.8889 27.1524 25.7197 27.1524 25.5505 27.1947C24.493 27.3639 24.1123 26.9832 24.4084 25.9258C25.1698 23.1764 28.0884 21.273 30.457 21.1884C32.6142 21.1038 34.0524 21.9921 35.279 23.5994C35.3213 23.684 35.3636 23.7686 35.4059 23.8532C35.4905 25.4605 34.8137 26.6025 33.5448 27.4062Z" fill="#22437E"/>
<path d="M17.8098 11.1216C17.979 11.1216 18.1482 11.2485 18.2751 11.4177C18.6135 11.7137 18.7827 12.1367 18.9519 12.5174C19.7555 14.0401 20.6438 15.5629 21.5743 17.0433C22.0819 17.847 22.0396 18.0584 21.236 18.566C20.4323 19.0736 19.7132 19.7081 19.0365 20.3848C18.3174 21.1885 17.8098 21.1462 17.2177 20.2156C16.0333 18.3122 15.6103 16.1973 15.7372 13.9978C15.7795 13.025 16.3717 12.179 17.0908 11.46C17.26 11.2908 17.4714 11.1639 17.8098 11.1216Z" fill="#21427D"/>
<path d="M77.1963 45.3829C77.1963 42.7604 77.1963 40.1802 77.1963 37.5578C77.1963 37.0925 77.3232 36.9656 77.7885 36.9656C79.3958 36.9656 79.3958 36.9656 79.3958 38.5306C79.3958 43.3526 79.3958 48.2168 79.3958 53.0388C79.3958 53.5041 79.3112 53.6733 78.8036 53.6733C77.2386 53.631 77.2386 53.6733 77.2386 52.066C77.1963 49.8665 77.1963 47.6247 77.1963 45.3829Z" fill="#264781"/>
<path d="M100.376 68.8159C100.756 68.0545 101.052 67.42 101.645 66.9548C102.321 66.4049 103.04 66.1088 103.929 66.1511C104.098 66.1511 104.352 66.1088 104.394 66.3203C104.436 66.9125 104.436 67.5469 104.394 68.1391C104.394 68.266 104.225 68.266 104.14 68.2237C101.898 67.8853 100.714 69.9156 100.672 71.819C100.672 73.807 100.629 75.7527 100.672 77.7407C100.672 78.2483 100.545 78.3752 100.08 78.3329C98.5145 78.3329 98.5145 78.3329 98.5145 76.7679C98.5145 73.4686 98.4722 70.1694 98.4299 66.8702C98.4299 66.4895 98.5145 66.3626 98.8952 66.3626C100.249 66.3626 100.249 66.3203 100.333 67.7161C100.333 68.0968 100.333 68.3929 100.376 68.8159Z" fill="#264781"/>
<path d="M165.557 68.689C166.022 68.0546 166.36 67.4201 166.952 66.9548C167.587 66.4472 168.348 66.1512 169.194 66.1935C169.533 66.1935 169.702 66.3203 169.617 66.6587C169.617 66.701 169.617 66.7433 169.617 66.7856C169.617 67.2509 169.744 67.7585 169.575 68.1392C169.363 68.5198 168.814 68.2238 168.391 68.3083C167.122 68.5198 166.107 69.7465 165.98 71.3538C165.81 73.3841 165.937 75.4144 165.937 77.4024C165.937 78.4599 165.937 78.4599 164.922 78.4599C163.78 78.4599 163.78 78.4599 163.78 77.2755C163.738 73.8071 163.865 70.381 163.696 66.9125C163.696 66.5318 163.822 66.4895 164.119 66.4895C165.557 66.4472 165.557 66.4049 165.641 67.8431C165.557 68.0546 165.557 68.3506 165.557 68.689Z" fill="#254680"/>
<path d="M33.5447 27.4062C34.8136 26.6026 35.4904 25.4605 35.3212 23.8955C35.7865 24.0224 35.9134 24.4454 36.0826 24.7838C37.6476 27.7023 38.7473 30.8324 39.974 33.9201C40.2701 34.7238 39.8048 35.1891 39.4241 35.7389C38.705 36.0773 38.2398 36.6695 37.9437 37.3886C37.4784 37.0925 37.4784 36.6272 37.563 36.2042C37.6476 35.6966 37.6053 35.2314 37.4361 34.7238C36.8016 32.7781 35.998 30.917 35.2789 29.0136C35.1943 28.7598 35.0674 28.5483 34.9405 28.2945C34.6867 27.7023 34.2637 27.3217 33.5447 27.4062Z" fill="#97BDE4"/>
<path d="M37.9861 37.3886C38.2822 36.6695 38.7474 36.0773 39.4665 35.7389C41.666 35.1045 43.8655 35.1045 46.1073 35.5275C46.8687 35.6966 47.0378 35.9927 47.0801 36.7541C47.1224 37.4732 46.7418 37.8538 46.1073 37.8961C44.7115 38.023 43.8655 38.6998 43.4425 40.0533C43.2733 40.5609 42.8926 40.9839 42.4274 41.3223C42.2582 41.4492 42.0467 41.5761 41.8352 41.4492C41.5814 41.3223 41.7083 41.0685 41.7506 40.857C41.8352 40.434 42.0044 39.9687 42.089 39.5458C42.2159 38.8267 41.9621 38.446 41.2853 38.1922C40.524 37.8962 39.7203 37.8962 38.9166 37.7693C38.536 37.6847 38.1553 37.7692 37.9861 37.3886Z" fill="#22447E"/>
<path d="M114.968 47.667C114.968 45.8482 114.968 44.0294 114.968 42.2106C114.968 41.8299 115.053 41.703 115.476 41.703C117.168 41.703 117.168 41.6607 117.168 43.3526C117.168 46.6095 117.168 49.8665 117.168 53.1234C117.168 53.5887 117.041 53.7579 116.576 53.7156C116.068 53.6733 115.391 53.8848 115.053 53.631C114.672 53.3349 114.926 52.6159 114.926 52.066C114.926 50.5856 114.968 49.1051 114.968 47.667Z" fill="#22447E"/>
<path d="M195.208 72.3689C195.208 70.5924 195.208 68.8159 195.208 67.0394C195.208 66.5741 195.292 66.4049 195.8 66.4049C197.365 66.4472 197.365 66.4049 197.365 67.9699C197.365 71.2269 197.365 74.4838 197.365 77.7408C197.365 78.2484 197.196 78.3752 196.73 78.3752C195.208 78.3329 195.208 78.3752 195.208 76.8525C195.208 75.3721 195.208 73.8917 195.208 72.3689Z" fill="#264781"/>
<path d="M48.2222 28.5906C49.1527 30.5786 49.3642 32.6089 48.6452 34.7238C48.3914 35.4005 48.2645 36.1196 48.1376 36.8387C47.3339 35.5697 46.5726 34.2585 45.8535 32.905C45.5151 32.2282 45.642 31.8898 46.2765 31.4668C46.3188 31.4245 46.3611 31.3822 46.4457 31.3399C47.7146 30.8747 48.4337 30.0287 48.2222 28.5906Z" fill="#97BDE4"/>
<path d="M46.784 16.1126C46.784 17.4239 46.3187 18.5236 45.6843 19.5388C45.5574 19.7926 45.4305 19.8349 45.1767 19.6234C44.5845 19.0312 43.8654 18.5236 43.1887 18.1007C42.8503 17.8892 42.8503 17.5931 43.0618 17.3393C43.7809 16.3241 44.5422 15.309 45.4728 14.463C45.8958 14.0823 46.1918 14.2092 46.4456 14.6745C46.6571 15.1398 46.784 15.6474 46.784 16.1126Z" fill="#23457F"/>
<path d="M117.379 38.4036C117.379 39.1227 116.745 39.7149 116.026 39.7149C115.265 39.7149 114.672 39.1227 114.672 38.3613C114.672 37.6 115.307 37.0078 116.068 37.0501C116.83 37.0078 117.422 37.6423 117.379 38.4036Z" fill="#254680"/>
<path d="M196.265 61.7098C197.069 61.7098 197.619 62.2597 197.619 63.0634C197.619 63.8247 197.069 64.3746 196.307 64.3746C195.504 64.3746 194.911 63.8247 194.911 63.0634C194.911 62.3443 195.504 61.7521 196.265 61.7098Z" fill="#254680"/>
<path d="M11.6345 50.1202C11.6345 50.1625 11.6345 50.2048 11.6345 50.2894C11.5499 50.2471 11.5499 50.1625 11.6345 50.1202Z" fill="#97BDE4"/>
</g>
<defs>
<clipPath id="clip0">
<rect width="247.695" height="83.775" fill="white"/>
</clipPath>
</defs>
</svg>
